<?xml version="1.0" encoding="UTF-8" standalone="no"?>
<!DOCTYPE svg PUBLIC "-//W3C//DTD SVG 1.1//EN"
 "http://www.w3.org/Graphics/SVG/1.1/DTD/svg11.dtd">
<!-- Generated by graphviz version 12.2.1 (20241206.2353)
 -->
<!-- Title: dependency&#45;cruiser output Pages: 1 -->
<svg width="830pt" height="710pt"
 viewBox="0.00 0.00 830.00 710.00" xmlns="http://www.w3.org/2000/svg" xmlns:xlink="http://www.w3.org/1999/xlink">
<g id="graph0" class="graph" transform="scale(1 1) rotate(0) translate(4 706)">
<title>dependency&#45;cruiser output</title>
<polygon fill="white" stroke="none" points="-4,4 -4,-706 826,-706 826,4 -4,4"/>
<g id="clust1" class="cluster">
<title>cluster_src</title>
<path fill="#ffffff" stroke="black" stroke-width="2" d="M20,-8C20,-8 802,-8 802,-8 808,-8 814,-14 814,-20 814,-20 814,-682 814,-682 814,-688 808,-694 802,-694 802,-694 20,-694 20,-694 14,-694 8,-688 8,-682 8,-682 8,-20 8,-20 8,-14 14,-8 20,-8"/>
<text text-anchor="middle" x="411" y="-681.45" font-family="Helvetica,sans-Serif" font-weight="bold" font-size="9.00">src</text>
</g>
<g id="clust2" class="cluster">
<title>cluster_src/atoms</title>
<path fill="#ffffff" stroke="black" stroke-width="2" d="M494.5,-577C494.5,-577 540.5,-577 540.5,-577 546.5,-577 552.5,-583 552.5,-589 552.5,-589 552.5,-620 552.5,-620 552.5,-626 546.5,-632 540.5,-632 540.5,-632 494.5,-632 494.5,-632 488.5,-632 482.5,-626 482.5,-620 482.5,-620 482.5,-589 482.5,-589 482.5,-583 488.5,-577 494.5,-577"/>
<text text-anchor="middle" x="517.5" y="-619.45" font-family="Helvetica,sans-Serif" font-weight="bold" font-size="9.00">atoms</text>
</g>
<g id="clust3" class="cluster">
<title>cluster_src/components</title>
<path fill="#ffffff" stroke="black" stroke-width="2" d="M101.5,-577C101.5,-577 415.12,-577 415.12,-577 421.12,-577 427.12,-583 427.12,-589 427.12,-589 427.12,-655 427.12,-655 427.12,-661 421.12,-667 415.12,-667 415.12,-667 101.5,-667 101.5,-667 95.5,-667 89.5,-661 89.5,-655 89.5,-655 89.5,-589 89.5,-589 89.5,-583 95.5,-577 101.5,-577"/>
<text text-anchor="middle" x="258.31" y="-654.45" font-family="Helvetica,sans-Serif" font-weight="bold" font-size="9.00">components</text>
</g>
<g id="clust4" class="cluster">
<title>cluster_src/components/layout</title>
<path fill="#ffffff" stroke="black" stroke-width="2" d="M200.25,-585C200.25,-585 407.12,-585 407.12,-585 413.12,-585 419.12,-591 419.12,-597 419.12,-597 419.12,-628 419.12,-628 419.12,-634 413.12,-640 407.12,-640 407.12,-640 200.25,-640 200.25,-640 194.25,-640 188.25,-634 188.25,-628 188.25,-628 188.25,-597 188.25,-597 188.25,-591 194.25,-585 200.25,-585"/>
<text text-anchor="middle" x="303.69" y="-627.45" font-family="Helvetica,sans-Serif" font-weight="bold" font-size="9.00">layout</text>
</g>
<g id="clust5" class="cluster">
<title>cluster_src/core</title>
<path fill="#ffffff" stroke="black" stroke-width="2" d="M710.25,-203C710.25,-203 794,-203 794,-203 800,-203 806,-209 806,-215 806,-215 806,-308 806,-308 806,-314 800,-320 794,-320 794,-320 710.25,-320 710.25,-320 704.25,-320 698.25,-314 698.25,-308 698.25,-308 698.25,-215 698.25,-215 698.25,-209 704.25,-203 710.25,-203"/>
<text text-anchor="middle" x="752.12" y="-307.45" font-family="Helvetica,sans-Serif" font-weight="bold" font-size="9.00">core</text>
</g>
<g id="clust6" class="cluster">
<title>cluster_src/hooks</title>
<path fill="#ffffff" stroke="black" stroke-width="2" d="M468.12,-96C468.12,-96 566.88,-96 566.88,-96 572.88,-96 578.88,-102 578.88,-108 578.88,-108 578.88,-139 578.88,-139 578.88,-145 572.88,-151 566.88,-151 566.88,-151 468.12,-151 468.12,-151 462.12,-151 456.12,-145 456.12,-139 456.12,-139 456.12,-108 456.12,-108 456.12,-102 462.12,-96 468.12,-96"/>
<text text-anchor="middle" x="517.5" y="-138.45" font-family="Helvetica,sans-Serif" font-weight="bold" font-size="9.00">hooks</text>
</g>
<g id="clust7" class="cluster">
<title>cluster_src/pages</title>
<path fill="#ffffff" stroke="black" stroke-width="2" d="M172.38,-159C172.38,-159 572.75,-159 572.75,-159 578.75,-159 584.75,-165 584.75,-171 584.75,-171 584.75,-557 584.75,-557 584.75,-563 578.75,-569 572.75,-569 572.75,-569 172.38,-569 172.38,-569 166.37,-569 160.38,-563 160.38,-557 160.38,-557 160.38,-171 160.38,-171 160.38,-165 166.38,-159 172.38,-159"/>
<text text-anchor="middle" x="372.56" y="-556.45" font-family="Helvetica,sans-Serif" font-weight="bold" font-size="9.00">pages</text>
</g>
<g id="clust8" class="cluster">
<title>cluster_src/pages/admin</title>
<path fill="#ffffff" stroke="black" stroke-width="2" d="M180.38,-167C180.38,-167 436.12,-167 436.12,-167 442.12,-167 448.12,-173 448.12,-179 448.12,-179 448.12,-338 448.12,-338 448.12,-344 442.12,-350 436.12,-350 436.12,-350 180.38,-350 180.38,-350 174.38,-350 168.38,-344 168.38,-338 168.38,-338 168.38,-179 168.38,-179 168.38,-173 174.38,-167 180.38,-167"/>
<text text-anchor="middle" x="308.25" y="-337.45" font-family="Helvetica,sans-Serif" font-weight="bold" font-size="9.00">admin</text>
</g>
<g id="clust9" class="cluster">
<title>cluster_src/pages/admin/tabs</title>
<path fill="#ffffff" stroke="black" stroke-width="2" d="M318.12,-175C318.12,-175 428.12,-175 428.12,-175 434.12,-175 440.12,-181 440.12,-187 440.12,-187 440.12,-311 440.12,-311 440.12,-317 434.12,-323 428.12,-323 428.12,-323 318.12,-323 318.12,-323 312.12,-323 306.12,-317 306.12,-311 306.12,-311 306.12,-187 306.12,-187 306.12,-181 312.12,-175 318.12,-175"/>
<text text-anchor="middle" x="373.12" y="-310.45" font-family="Helvetica,sans-Serif" font-weight="bold" font-size="9.00">tabs</text>
</g>
<g id="clust10" class="cluster">
<title>cluster_src/pages/auth</title>
<path fill="#ffffff" stroke="black" stroke-width="2" d="M205.12,-456C205.12,-456 396.12,-456 396.12,-456 402.12,-456 408.12,-462 408.12,-468 408.12,-468 408.12,-530 408.12,-530 408.12,-536 402.12,-542 396.12,-542 396.12,-542 205.12,-542 205.12,-542 199.12,-542 193.12,-536 193.12,-530 193.12,-530 193.12,-468 193.12,-468 193.12,-462 199.12,-456 205.12,-456"/>
<text text-anchor="middle" x="300.62" y="-529.45" font-family="Helvetica,sans-Serif" font-weight="bold" font-size="9.00">auth</text>
</g>
<g id="clust11" class="cluster">
<title>cluster_src/pages/home</title>
<path fill="#ffffff" stroke="black" stroke-width="2" d="M204,-358C204,-358 564.75,-358 564.75,-358 570.75,-358 576.75,-364 576.75,-370 576.75,-370 576.75,-436 576.75,-436 576.75,-442 570.75,-448 564.75,-448 564.75,-448 204,-448 204,-448 198,-448 192,-442 192,-436 192,-436 192,-370 192,-370 192,-364 198,-358 204,-358"/>
<text text-anchor="middle" x="384.38" y="-435.45" font-family="Helvetica,sans-Serif" font-weight="bold" font-size="9.00">home</text>
</g>
<g id="clust12" class="cluster">
<title>cluster_src/pages/home/components</title>
<path fill="#ffffff" stroke="black" stroke-width="2" d="M336.88,-366C336.88,-366 556.75,-366 556.75,-366 562.75,-366 568.75,-372 568.75,-378 568.75,-378 568.75,-409 568.75,-409 568.75,-415 562.75,-421 556.75,-421 556.75,-421 336.88,-421 336.88,-421 330.88,-421 324.88,-415 324.88,-409 324.88,-409 324.88,-378 324.88,-378 324.88,-372 330.88,-366 336.88,-366"/>
<text text-anchor="middle" x="446.81" y="-408.45" font-family="Helvetica,sans-Serif" font-weight="bold" font-size="9.00">components</text>
</g>
<g id="clust13" class="cluster">
<title>cluster_src/utilities</title>
<path fill="#ffffff" stroke="black" stroke-width="2" d="M604.75,-16C604.75,-16 787.62,-16 787.62,-16 793.62,-16 799.62,-22 799.62,-28 799.62,-28 799.62,-183 799.62,-183 799.62,-189 793.62,-195 787.62,-195 787.62,-195 604.75,-195 604.75,-195 598.75,-195 592.75,-189 592.75,-183 592.75,-183 592.75,-28 592.75,-28 592.75,-22 598.75,-16 604.75,-16"/>
<text text-anchor="middle" x="696.19" y="-182.45" font-family="Helvetica,sans-Serif" font-weight="bold" font-size="9.00">utilities</text>
</g>
<!-- src/atoms/auth.ts -->
<g id="node1" class="node">
<title>src/atoms/auth.ts</title>
<g id="a_node1"><a xlink:href="src/atoms/auth.ts" xlink:title="auth.ts">
<path fill="#ddfeff" stroke="black" d="M538.08,-604.62C538.08,-604.62 496.92,-604.62 496.92,-604.62 493.71,-604.62 490.5,-601.42 490.5,-598.21 490.5,-598.21 490.5,-591.79 490.5,-591.79 490.5,-588.58 493.71,-585.38 496.92,-585.38 496.92,-585.38 538.08,-585.38 538.08,-585.38 541.29,-585.38 544.5,-588.58 544.5,-591.79 544.5,-591.79 544.5,-598.21 544.5,-598.21 544.5,-601.42 541.29,-604.62 538.08,-604.62"/>
<text text-anchor="start" x="503.62" y="-592.08" font-family="Helvetica,sans-Serif" font-size="9.00">auth.ts</text>
</a>
</g>
</g>
<!-- src/utilities/authApi.ts -->
<g id="node2" class="node">
<title>src/utilities/authApi.ts</title>
<g id="a_node2"><a xlink:href="src/utilities/authApi.ts" xlink:title="authApi.ts">
<path fill="#ddfeff" stroke="black" d="M667.71,-167.62C667.71,-167.62 623.29,-167.62 623.29,-167.62 620.08,-167.62 616.88,-164.42 616.88,-161.21 616.88,-161.21 616.88,-154.79 616.88,-154.79 616.88,-151.58 620.08,-148.38 623.29,-148.38 623.29,-148.38 667.71,-148.38 667.71,-148.38 670.92,-148.38 674.12,-151.58 674.12,-154.79 674.12,-154.79 674.12,-161.21 674.12,-161.21 674.12,-164.42 670.92,-167.62 667.71,-167.62"/>
<text text-anchor="start" x="624.88" y="-155.07" font-family="Helvetica,sans-Serif" font-size="9.00">authApi.ts</text>
</a>
</g>
</g>
<!-- src/atoms/auth.ts&#45;&gt;src/utilities/authApi.ts -->
<g id="edge1" class="edge">
<title>src/atoms/auth.ts&#45;&gt;src/utilities/authApi.ts</title>
<path fill="none" stroke="#000000" stroke-width="2" stroke-opacity="0.200000" d="M522.91,-585.16C534.4,-559.24 565.66,-486.75 584.75,-424 612.54,-332.65 633.64,-220.08 641.33,-176.47"/>
<polygon fill="#000000" fill-opacity="0.200000" stroke="#000000" stroke-width="2" stroke-opacity="0.200000" points="643.36,-177.05 642.32,-170.78 639.22,-176.33 643.36,-177.05"/>
</g>
<!-- src/core/generated&#45;client.ts -->
<g id="node3" class="node">
<title>src/core/generated&#45;client.ts</title>
<g id="a_node3"><a xlink:href="src/core/generated-client.ts" xlink:title="generated&#45;client.ts">
<path fill="#ddfeff" stroke="black" d="M791.58,-292.62C791.58,-292.62 712.67,-292.62 712.67,-292.62 709.46,-292.62 706.25,-289.42 706.25,-286.21 706.25,-286.21 706.25,-279.79 706.25,-279.79 706.25,-276.58 709.46,-273.38 712.67,-273.38 712.67,-273.38 791.58,-273.38 791.58,-273.38 794.79,-273.38 798,-276.58 798,-279.79 798,-279.79 798,-286.21 798,-286.21 798,-289.42 794.79,-292.62 791.58,-292.62"/>
<text text-anchor="start" x="714.25" y="-280.07" font-family="Helvetica,sans-Serif" font-size="9.00">generated&#45;client.ts</text>
</a>
</g>
</g>
<!-- src/atoms/auth.ts&#45;&gt;src/core/generated&#45;client.ts -->
<g id="edge2" class="edge">
<title>src/atoms/auth.ts&#45;&gt;src/core/generated&#45;client.ts</title>
<path fill="none" stroke="#000000" stroke-opacity="0.200000" d="M525.98,-584.97C559.75,-539.68 698.2,-353.98 739.47,-298.64"/>
<polygon fill="none" stroke="#000000" stroke-opacity="0.200000" points="740.98,-300.11 742.89,-294.05 737.62,-297.6 740.98,-300.11"/>
</g>
<!-- src/utilities/authApi.ts&#45;&gt;src/core/generated&#45;client.ts -->
<g id="edge35" class="edge">
<title>src/utilities/authApi.ts&#45;&gt;src/core/generated&#45;client.ts</title>
<path fill="none" stroke="#000000" stroke-width="2" stroke-opacity="0.200000" d="M658.3,-168.03C668.56,-177.48 682.89,-192.61 690.25,-209 701.09,-233.14 680.91,-248.01 698.25,-268 698.53,-268.32 698.82,-268.64 699.11,-268.95"/>
<polygon fill="#000000" fill-opacity="0.200000" stroke="#000000" stroke-width="2" stroke-opacity="0.200000" points="697.73,-270.53 703.72,-272.66 700.36,-267.26 697.73,-270.53"/>
</g>
<!-- src/core/baseUrl.ts -->
<g id="node7" class="node">
<title>src/core/baseUrl.ts</title>
<g id="a_node7"><a xlink:href="src/core/baseUrl.ts" xlink:title="baseUrl.ts">
<path fill="#ddfeff" stroke="black" d="M773.96,-230.62C773.96,-230.62 730.29,-230.62 730.29,-230.62 727.08,-230.62 723.88,-227.42 723.88,-224.21 723.88,-224.21 723.88,-217.79 723.88,-217.79 723.88,-214.58 727.08,-211.38 730.29,-211.38 730.29,-211.38 773.96,-211.38 773.96,-211.38 777.17,-211.38 780.38,-214.58 780.38,-217.79 780.38,-217.79 780.38,-224.21 780.38,-224.21 780.38,-227.42 777.17,-230.62 773.96,-230.62"/>
<text text-anchor="start" x="731.88" y="-218.07" font-family="Helvetica,sans-Serif" font-size="9.00">baseUrl.ts</text>
</a>
</g>
</g>
<!-- src/utilities/authApi.ts&#45;&gt;src/core/baseUrl.ts -->
<g id="edge34" class="edge">
<title>src/utilities/authApi.ts&#45;&gt;src/core/baseUrl.ts</title>
<path fill="none" stroke="#000000" stroke-width="2" stroke-opacity="0.200000" d="M657.83,-168.09C667.94,-176.76 683.39,-189.21 698.25,-198 703.88,-201.33 710.07,-204.46 716.19,-207.27"/>
<polygon fill="#000000" fill-opacity="0.200000" stroke="#000000" stroke-width="2" stroke-opacity="0.200000" points="715.3,-209.17 721.63,-209.67 716.99,-205.33 715.3,-209.17"/>
</g>
<!-- src/utilities/customFetch.ts -->
<g id="node28" class="node">
<title>src/utilities/customFetch.ts</title>
<g id="a_node28"><a xlink:href="src/utilities/customFetch.ts" xlink:title="customFetch.ts">
<path fill="#ddfeff" stroke="black" d="M785.21,-120.62C785.21,-120.62 719.04,-120.62 719.04,-120.62 715.83,-120.62 712.62,-117.42 712.62,-114.21 712.62,-114.21 712.62,-107.79 712.62,-107.79 712.62,-104.58 715.83,-101.38 719.04,-101.38 719.04,-101.38 785.21,-101.38 785.21,-101.38 788.42,-101.38 791.62,-104.58 791.62,-107.79 791.62,-107.79 791.62,-114.21 791.62,-114.21 791.62,-117.42 788.42,-120.62 785.21,-120.62"/>
<text text-anchor="start" x="720.62" y="-108.08" font-family="Helvetica,sans-Serif" font-size="9.00">customFetch.ts</text>
</a>
</g>
</g>
<!-- src/utilities/authApi.ts&#45;&gt;src/utilities/customFetch.ts -->
<g id="edge36" class="edge">
<title>src/utilities/authApi.ts&#45;&gt;src/utilities/customFetch.ts</title>
<path fill="none" stroke="#000000" stroke-width="2" stroke-opacity="0.200000" d="M674.52,-149.11C679.8,-147.23 685.24,-145.16 690.25,-143 702.22,-137.84 715.05,-131.26 725.83,-125.41"/>
<polygon fill="#000000" fill-opacity="0.200000" stroke="#000000" stroke-width="2" stroke-opacity="0.200000" points="726.74,-127.31 730.98,-122.58 724.71,-123.63 726.74,-127.31"/>
</g>
<!-- src/components/App.tsx -->
<g id="node4" class="node">
<title>src/components/App.tsx</title>
<g id="a_node4"><a xlink:href="src/components/App.tsx" xlink:title="App.tsx">
<path fill="#bbfeff" stroke="black" d="M145.08,-612.62C145.08,-612.62 103.92,-612.62 103.92,-612.62 100.71,-612.62 97.5,-609.42 97.5,-606.21 97.5,-606.21 97.5,-599.79 97.5,-599.79 97.5,-596.58 100.71,-593.38 103.92,-593.38 103.92,-593.38 145.08,-593.38 145.08,-593.38 148.29,-593.38 151.5,-596.58 151.5,-599.79 151.5,-599.79 151.5,-606.21 151.5,-606.21 151.5,-609.42 148.29,-612.62 145.08,-612.62"/>
<text text-anchor="start" x="109.12" y="-600.08" font-family="Helvetica,sans-Serif" font-size="9.00">App.tsx</text>
</a>
</g>
</g>
<!-- src/components/layout/HomeLayout.tsx -->
<g id="node5" class="node">
<title>src/components/layout/HomeLayout.tsx</title>
<g id="a_node5"><a xlink:href="src/components/layout/HomeLayout.tsx" xlink:title="HomeLayout.tsx">
<path fill="#bbfeff" stroke="black" d="M271.83,-612.62C271.83,-612.62 202.67,-612.62 202.67,-612.62 199.46,-612.62 196.25,-609.42 196.25,-606.21 196.25,-606.21 196.25,-599.79 196.25,-599.79 196.25,-596.58 199.46,-593.38 202.67,-593.38 202.67,-593.38 271.83,-593.38 271.83,-593.38 275.04,-593.38 278.25,-596.58 278.25,-599.79 278.25,-599.79 278.25,-606.21 278.25,-606.21 278.25,-609.42 275.04,-612.62 271.83,-612.62"/>
<text text-anchor="start" x="204.25" y="-600.08" font-family="Helvetica,sans-Serif" font-size="9.00">HomeLayout.tsx</text>
</a>
</g>
</g>
<!-- src/components/App.tsx&#45;&gt;src/components/layout/HomeLayout.tsx -->
<g id="edge3" class="edge">
<title>src/components/App.tsx&#45;&gt;src/components/layout/HomeLayout.tsx</title>
<path fill="none" stroke="#000000" stroke-width="2" stroke-opacity="0.200000" d="M151.75,-603C162.35,-603 174.94,-603 187.13,-603"/>
<polygon fill="#000000" fill-opacity="0.200000" stroke="#000000" stroke-width="2" stroke-opacity="0.200000" points="186.87,-605.1 192.87,-603 186.87,-600.9 186.87,-605.1"/>
</g>
<!-- src/components/layout/AppHeader.tsx -->
<g id="node6" class="node">
<title>src/components/layout/AppHeader.tsx</title>
<g id="a_node6"><a xlink:href="src/components/layout/AppHeader.tsx" xlink:title="AppHeader.tsx">
<path fill="#bbfeff" stroke="black" d="M404.71,-612.62C404.71,-612.62 341.54,-612.62 341.54,-612.62 338.33,-612.62 335.12,-609.42 335.12,-606.21 335.12,-606.21 335.12,-599.79 335.12,-599.79 335.12,-596.58 338.33,-593.38 341.54,-593.38 341.54,-593.38 404.71,-593.38 404.71,-593.38 407.92,-593.38 411.12,-596.58 411.12,-599.79 411.12,-599.79 411.12,-606.21 411.12,-606.21 411.12,-609.42 407.92,-612.62 404.71,-612.62"/>
<text text-anchor="start" x="343.12" y="-600.08" font-family="Helvetica,sans-Serif" font-size="9.00">AppHeader.tsx</text>
</a>
</g>
</g>
<!-- src/components/layout/HomeLayout.tsx&#45;&gt;src/components/layout/AppHeader.tsx -->
<g id="edge5" class="edge">
<title>src/components/layout/HomeLayout.tsx&#45;&gt;src/components/layout/AppHeader.tsx</title>
<path fill="none" stroke="#000000" stroke-width="2" stroke-opacity="0.200000" d="M278.42,-603C293.35,-603 310.42,-603 325.86,-603"/>
<polygon fill="#000000" fill-opacity="0.200000" stroke="#000000" stroke-width="2" stroke-opacity="0.200000" points="325.71,-605.1 331.71,-603 325.71,-600.9 325.71,-605.1"/>
</g>
<!-- src/components/layout/AppHeader.tsx&#45;&gt;src/atoms/auth.ts -->
<g id="edge4" class="edge">
<title>src/components/layout/AppHeader.tsx&#45;&gt;src/atoms/auth.ts</title>
<path fill="none" stroke="#000000" stroke-width="2" stroke-opacity="0.200000" d="M411.53,-600.9C433.06,-599.69 459.96,-598.18 481.14,-596.99"/>
<polygon fill="#000000" fill-opacity="0.200000" stroke="#000000" stroke-width="2" stroke-opacity="0.200000" points="481.23,-599.09 487.1,-596.65 481,-594.89 481.23,-599.09"/>
</g>
<!-- src/core/problemdetails.ts -->
<g id="node8" class="node">
<title>src/core/problemdetails.ts</title>
<g id="a_node8"><a xlink:href="src/core/problemdetails.ts" xlink:title="problemdetails.ts">
<path fill="#ddfeff" stroke="black" d="M788.96,-261.62C788.96,-261.62 715.29,-261.62 715.29,-261.62 712.08,-261.62 708.88,-258.42 708.88,-255.21 708.88,-255.21 708.88,-248.79 708.88,-248.79 708.88,-245.58 712.08,-242.38 715.29,-242.38 715.29,-242.38 788.96,-242.38 788.96,-242.38 792.17,-242.38 795.38,-245.58 795.38,-248.79 795.38,-248.79 795.38,-255.21 795.38,-255.21 795.38,-258.42 792.17,-261.62 788.96,-261.62"/>
<text text-anchor="start" x="716.88" y="-249.07" font-family="Helvetica,sans-Serif" font-size="9.00">problemdetails.ts</text>
</a>
</g>
</g>
<!-- src/hooks/useAdminPayments.ts -->
<g id="node9" class="node">
<title>src/hooks/useAdminPayments.ts</title>
<g id="a_node9"><a xlink:href="src/hooks/useAdminPayments.ts" xlink:title="useAdminPayments.ts">
<path fill="#ddfeff" stroke="black" d="M564.46,-123.62C564.46,-123.62 470.54,-123.62 470.54,-123.62 467.33,-123.62 464.12,-120.42 464.12,-117.21 464.12,-117.21 464.12,-110.79 464.12,-110.79 464.12,-107.58 467.33,-104.38 470.54,-104.38 470.54,-104.38 564.46,-104.38 564.46,-104.38 567.67,-104.38 570.88,-107.58 570.88,-110.79 570.88,-110.79 570.88,-117.21 570.88,-117.21 570.88,-120.42 567.67,-123.62 564.46,-123.62"/>
<text text-anchor="start" x="472.12" y="-111.08" font-family="Helvetica,sans-Serif" font-size="9.00">useAdminPayments.ts</text>
</a>
</g>
</g>
<!-- src/hooks/useAdminPayments.ts&#45;&gt;src/core/generated&#45;client.ts -->
<g id="edge6" class="edge">
<title>src/hooks/useAdminPayments.ts&#45;&gt;src/core/generated&#45;client.ts</title>
<path fill="none" stroke="#000000" stroke-opacity="0.200000" d="M524.54,-123.9C535.78,-141.47 561.58,-178.11 592.75,-198 630.86,-222.32 659.86,-193.53 690.25,-227 702.73,-240.75 685.68,-254.33 698.25,-268 698.8,-268.6 699.37,-269.17 699.96,-269.72"/>
<polygon fill="none" stroke="#000000" stroke-opacity="0.200000" points="698.5,-271.25 704.55,-273.2 701.03,-267.9 698.5,-271.25"/>
</g>
<!-- src/utilities/playersApi.ts -->
<g id="node10" class="node">
<title>src/utilities/playersApi.ts</title>
<g id="a_node10"><a xlink:href="src/utilities/playersApi.ts" xlink:title="playersApi.ts">
<path fill="#ddfeff" stroke="black" d="M673.33,-74.62C673.33,-74.62 617.67,-74.62 617.67,-74.62 614.46,-74.62 611.25,-71.42 611.25,-68.21 611.25,-68.21 611.25,-61.79 611.25,-61.79 611.25,-58.58 614.46,-55.38 617.67,-55.38 617.67,-55.38 673.33,-55.38 673.33,-55.38 676.54,-55.38 679.75,-58.58 679.75,-61.79 679.75,-61.79 679.75,-68.21 679.75,-68.21 679.75,-71.42 676.54,-74.62 673.33,-74.62"/>
<text text-anchor="start" x="619.25" y="-62.08" font-family="Helvetica,sans-Serif" font-size="9.00">playersApi.ts</text>
</a>
</g>
</g>
<!-- src/hooks/useAdminPayments.ts&#45;&gt;src/utilities/playersApi.ts -->
<g id="edge7" class="edge">
<title>src/hooks/useAdminPayments.ts&#45;&gt;src/utilities/playersApi.ts</title>
<path fill="none" stroke="#000000" stroke-width="2" stroke-opacity="0.200000" d="M538.33,-103.95C553.1,-96.71 573.88,-87.01 592.75,-80 595.82,-78.86 599.03,-77.75 602.27,-76.68"/>
<polygon fill="#000000" fill-opacity="0.200000" stroke="#000000" stroke-width="2" stroke-opacity="0.200000" points="602.88,-78.69 607.97,-74.88 601.62,-74.68 602.88,-78.69"/>
</g>
<!-- src/utilities/transactionsApi.ts -->
<g id="node11" class="node">
<title>src/utilities/transactionsApi.ts</title>
<g id="a_node11"><a xlink:href="src/utilities/transactionsApi.ts" xlink:title="transactionsApi.ts">
<path fill="#ddfeff" stroke="black" d="M683.83,-136.62C683.83,-136.62 607.17,-136.62 607.17,-136.62 603.96,-136.62 600.75,-133.42 600.75,-130.21 600.75,-130.21 600.75,-123.79 600.75,-123.79 600.75,-120.58 603.96,-117.38 607.17,-117.38 607.17,-117.38 683.83,-117.38 683.83,-117.38 687.04,-117.38 690.25,-120.58 690.25,-123.79 690.25,-123.79 690.25,-130.21 690.25,-130.21 690.25,-133.42 687.04,-136.62 683.83,-136.62"/>
<text text-anchor="start" x="608.75" y="-124.08" font-family="Helvetica,sans-Serif" font-size="9.00">transactionsApi.ts</text>
</a>
</g>
</g>
<!-- src/hooks/useAdminPayments.ts&#45;&gt;src/utilities/transactionsApi.ts -->
<g id="edge8" class="edge">
<title>src/hooks/useAdminPayments.ts&#45;&gt;src/utilities/transactionsApi.ts</title>
<path fill="none" stroke="#000000" stroke-width="2" stroke-opacity="0.200000" d="M571.21,-119.44C578.03,-120.14 585.03,-120.86 591.85,-121.57"/>
<polygon fill="#000000" fill-opacity="0.200000" stroke="#000000" stroke-width="2" stroke-opacity="0.200000" points="591.19,-123.61 597.38,-122.14 591.62,-119.43 591.19,-123.61"/>
</g>
<!-- src/utilities/playersApi.ts&#45;&gt;src/core/generated&#45;client.ts -->
<g id="edge45" class="edge">
<title>src/utilities/playersApi.ts&#45;&gt;src/core/generated&#45;client.ts</title>
<path fill="none" stroke="#000000" stroke-width="2" stroke-opacity="0.200000" d="M679.96,-71.56C683.95,-73.65 687.56,-76.4 690.25,-80 702.76,-96.75 685.29,-251.59 698.25,-268 698.52,-268.34 698.79,-268.67 699.07,-268.99"/>
<polygon fill="#000000" fill-opacity="0.200000" stroke="#000000" stroke-width="2" stroke-opacity="0.200000" points="697.59,-270.49 703.51,-272.81 700.33,-267.3 697.59,-270.49"/>
</g>
<!-- src/utilities/playersApi.ts&#45;&gt;src/core/baseUrl.ts -->
<g id="edge44" class="edge">
<title>src/utilities/playersApi.ts&#45;&gt;src/core/baseUrl.ts</title>
<path fill="none" stroke="#000000" stroke-width="2" stroke-opacity="0.200000" d="M679.88,-71.63C683.88,-73.71 687.51,-76.43 690.25,-80 706.24,-100.86 683.11,-176.52 698.25,-198 702.52,-204.06 708.74,-208.53 715.43,-211.84"/>
<polygon fill="#000000" fill-opacity="0.200000" stroke="#000000" stroke-width="2" stroke-opacity="0.200000" points="714.27,-213.63 720.62,-214.03 715.91,-209.76 714.27,-213.63"/>
</g>
<!-- src/utilities/playersApi.ts&#45;&gt;src/utilities/customFetch.ts -->
<g id="edge46" class="edge">
<title>src/utilities/playersApi.ts&#45;&gt;src/utilities/customFetch.ts</title>
<path fill="none" stroke="#000000" stroke-width="2" stroke-opacity="0.200000" d="M677.77,-75.12C682,-76.66 686.26,-78.31 690.25,-80 702,-84.98 714.62,-91.24 725.31,-96.84"/>
<polygon fill="#000000" fill-opacity="0.200000" stroke="#000000" stroke-width="2" stroke-opacity="0.200000" points="724.11,-98.58 730.39,-99.54 726.07,-94.87 724.11,-98.58"/>
</g>
<!-- src/utilities/transactionsApi.ts&#45;&gt;src/core/generated&#45;client.ts -->
<g id="edge48" class="edge">
<title>src/utilities/transactionsApi.ts&#45;&gt;src/core/generated&#45;client.ts</title>
<path fill="none" stroke="#000000" stroke-width="2" stroke-opacity="0.200000" d="M685.17,-136.95C687.07,-138.41 688.79,-140.09 690.25,-142 707.27,-164.3 680.63,-246.16 698.25,-268 698.52,-268.33 698.8,-268.66 699.08,-268.98"/>
<polygon fill="#000000" fill-opacity="0.200000" stroke="#000000" stroke-width="2" stroke-opacity="0.200000" points="697.62,-270.5 703.56,-272.77 700.34,-267.3 697.62,-270.5"/>
</g>
<!-- src/utilities/transactionsApi.ts&#45;&gt;src/core/baseUrl.ts -->
<g id="edge47" class="edge">
<title>src/utilities/transactionsApi.ts&#45;&gt;src/core/baseUrl.ts</title>
<path fill="none" stroke="#000000" stroke-width="2" stroke-opacity="0.200000" d="M685,-137.09C686.94,-138.52 688.71,-140.14 690.25,-142 706.28,-161.37 683.01,-178 698.25,-198 702.7,-203.84 708.94,-208.22 715.57,-211.5"/>
<polygon fill="#000000" fill-opacity="0.200000" stroke="#000000" stroke-width="2" stroke-opacity="0.200000" points="714.33,-213.25 720.68,-213.67 715.98,-209.39 714.33,-213.25"/>
</g>
<!-- src/utilities/transactionsApi.ts&#45;&gt;src/utilities/customFetch.ts -->
<g id="edge49" class="edge">
<title>src/utilities/transactionsApi.ts&#45;&gt;src/utilities/customFetch.ts</title>
<path fill="none" stroke="#000000" stroke-width="2" stroke-opacity="0.200000" d="M690.57,-120.26C694.88,-119.6 699.27,-118.93 703.61,-118.27"/>
<polygon fill="#000000" fill-opacity="0.200000" stroke="#000000" stroke-width="2" stroke-opacity="0.200000" points="703.81,-120.36 709.43,-117.38 703.18,-116.21 703.81,-120.36"/>
</g>
<!-- src/index.css -->
<g id="node12" class="node">
<title>src/index.css</title>
<g id="a_node12"><a xlink:href="src/index.css" xlink:title="index.css">
<path fill="#ffffcc" stroke="black" d="M145.08,-413.62C145.08,-413.62 103.92,-413.62 103.92,-413.62 100.71,-413.62 97.5,-410.42 97.5,-407.21 97.5,-407.21 97.5,-400.79 97.5,-400.79 97.5,-397.58 100.71,-394.38 103.92,-394.38 103.92,-394.38 145.08,-394.38 145.08,-394.38 148.29,-394.38 151.5,-397.58 151.5,-400.79 151.5,-400.79 151.5,-407.21 151.5,-407.21 151.5,-410.42 148.29,-413.62 145.08,-413.62"/>
<text text-anchor="start" x="105.75" y="-401.07" font-family="Helvetica,sans-Serif" font-size="9.00">index.css</text>
</a>
</g>
</g>
<!-- src/main.tsx -->
<g id="node13" class="node">
<title>src/main.tsx</title>
<g id="a_node13"><a xlink:href="src/main.tsx" xlink:title="main.tsx">
<path fill="#bbfeff" stroke="black" d="M69.33,-428.62C69.33,-428.62 28.17,-428.62 28.17,-428.62 24.96,-428.62 21.75,-425.42 21.75,-422.21 21.75,-422.21 21.75,-415.79 21.75,-415.79 21.75,-412.58 24.96,-409.38 28.17,-409.38 28.17,-409.38 69.33,-409.38 69.33,-409.38 72.54,-409.38 75.75,-412.58 75.75,-415.79 75.75,-415.79 75.75,-422.21 75.75,-422.21 75.75,-425.42 72.54,-428.62 69.33,-428.62"/>
<text text-anchor="start" x="31.5" y="-416.07" font-family="Helvetica,sans-Serif" font-size="9.00">main.tsx</text>
</a>
</g>
</g>
<!-- src/main.tsx&#45;&gt;src/index.css -->
<g id="edge9" class="edge">
<title>src/main.tsx&#45;&gt;src/index.css</title>
<path fill="none" stroke="#000000" stroke-width="2" stroke-opacity="0.200000" d="M75.96,-413.67C80.09,-412.83 84.41,-411.95 88.7,-411.08"/>
<polygon fill="#000000" fill-opacity="0.200000" stroke="#000000" stroke-width="2" stroke-opacity="0.200000" points="88.95,-413.17 94.41,-409.92 88.11,-409.05 88.95,-413.17"/>
</g>
<!-- src/router.tsx -->
<g id="node14" class="node">
<title>src/router.tsx</title>
<g id="a_node14"><a xlink:href="src/router.tsx" xlink:title="router.tsx">
<path fill="#bbfeff" stroke="black" d="M145.96,-444.62C145.96,-444.62 103.04,-444.62 103.04,-444.62 99.83,-444.62 96.62,-441.42 96.62,-438.21 96.62,-438.21 96.62,-431.79 96.62,-431.79 96.62,-428.58 99.83,-425.38 103.04,-425.38 103.04,-425.38 145.96,-425.38 145.96,-425.38 149.17,-425.38 152.38,-428.58 152.38,-431.79 152.38,-431.79 152.38,-438.21 152.38,-438.21 152.38,-441.42 149.17,-444.62 145.96,-444.62"/>
<text text-anchor="start" x="104.62" y="-432.07" font-family="Helvetica,sans-Serif" font-size="9.00">router.tsx</text>
</a>
</g>
</g>
<!-- src/main.tsx&#45;&gt;src/router.tsx -->
<g id="edge10" class="edge">
<title>src/main.tsx&#45;&gt;src/router.tsx</title>
<path fill="none" stroke="#000000" stroke-width="2" stroke-opacity="0.200000" d="M75.96,-424.69C79.74,-425.51 83.69,-426.36 87.62,-427.22"/>
<polygon fill="#000000" fill-opacity="0.200000" stroke="#000000" stroke-width="2" stroke-opacity="0.200000" points="86.86,-429.2 93.17,-428.42 87.75,-425.1 86.86,-429.2"/>
</g>
<!-- src/router.tsx&#45;&gt;src/components/layout/HomeLayout.tsx -->
<g id="edge30" class="edge">
<title>src/router.tsx&#45;&gt;src/components/layout/HomeLayout.tsx</title>
<path fill="none" stroke="#000000" stroke-width="2" stroke-opacity="0.200000" d="M126.63,-445C129.35,-465.46 137.8,-512.87 160.38,-545 173.16,-563.19 193.36,-578.23 209.7,-588.44"/>
<polygon fill="#000000" fill-opacity="0.200000" stroke="#000000" stroke-width="2" stroke-opacity="0.200000" points="208.55,-590.19 214.78,-591.49 210.72,-586.6 208.55,-590.19"/>
</g>
<!-- src/pages/admin/AdminDashboardPage.tsx -->
<g id="node15" class="node">
<title>src/pages/admin/AdminDashboardPage.tsx</title>
<g id="a_node15"><a xlink:href="src/pages/admin/AdminDashboardPage.tsx" xlink:title="AdminDashboardPage.tsx">
<path fill="#bbfeff" stroke="black" d="M291.71,-280.62C291.71,-280.62 182.79,-280.62 182.79,-280.62 179.58,-280.62 176.38,-277.42 176.38,-274.21 176.38,-274.21 176.38,-267.79 176.38,-267.79 176.38,-264.58 179.58,-261.38 182.79,-261.38 182.79,-261.38 291.71,-261.38 291.71,-261.38 294.92,-261.38 298.12,-264.58 298.12,-267.79 298.12,-267.79 298.12,-274.21 298.12,-274.21 298.12,-277.42 294.92,-280.62 291.71,-280.62"/>
<text text-anchor="start" x="184.38" y="-268.07" font-family="Helvetica,sans-Serif" font-size="9.00">AdminDashboardPage.tsx</text>
</a>
</g>
</g>
<!-- src/router.tsx&#45;&gt;src/pages/admin/AdminDashboardPage.tsx -->
<g id="edge31" class="edge">
<title>src/router.tsx&#45;&gt;src/pages/admin/AdminDashboardPage.tsx</title>
<path fill="none" stroke="#000000" stroke-width="2" stroke-opacity="0.200000" d="M147.57,-425.19C149.41,-423.67 151.06,-421.95 152.38,-420 168.62,-395.85 148.28,-381.47 160.38,-355 173.14,-327.07 198.59,-301.94 216.48,-286.6"/>
<polygon fill="#000000" fill-opacity="0.200000" stroke="#000000" stroke-width="2" stroke-opacity="0.200000" points="217.58,-288.42 220.84,-282.96 214.89,-285.19 217.58,-288.42"/>
</g>
<!-- src/pages/auth/LoginPage.tsx -->
<g id="node23" class="node">
<title>src/pages/auth/LoginPage.tsx</title>
<g id="a_node23"><a xlink:href="src/pages/auth/LoginPage.tsx" xlink:title="LoginPage.tsx">
<path fill="#bbfeff" stroke="black" d="M266.96,-483.62C266.96,-483.62 207.54,-483.62 207.54,-483.62 204.33,-483.62 201.12,-480.42 201.12,-477.21 201.12,-477.21 201.12,-470.79 201.12,-470.79 201.12,-467.58 204.33,-464.38 207.54,-464.38 207.54,-464.38 266.96,-464.38 266.96,-464.38 270.17,-464.38 273.38,-467.58 273.38,-470.79 273.38,-470.79 273.38,-477.21 273.38,-477.21 273.38,-480.42 270.17,-483.62 266.96,-483.62"/>
<text text-anchor="start" x="209.12" y="-471.07" font-family="Helvetica,sans-Serif" font-size="9.00">LoginPage.tsx</text>
</a>
</g>
</g>
<!-- src/router.tsx&#45;&gt;src/pages/auth/LoginPage.tsx -->
<g id="edge32" class="edge">
<title>src/router.tsx&#45;&gt;src/pages/auth/LoginPage.tsx</title>
<path fill="none" stroke="#000000" stroke-width="2" stroke-opacity="0.200000" d="M146.33,-445.11C150.91,-447.18 155.77,-449.25 160.38,-451 170.63,-454.89 181.86,-458.58 192.45,-461.83"/>
<polygon fill="#000000" fill-opacity="0.200000" stroke="#000000" stroke-width="2" stroke-opacity="0.200000" points="191.53,-463.75 197.89,-463.46 192.74,-459.72 191.53,-463.75"/>
</g>
<!-- src/pages/home/HomePage.tsx -->
<g id="node25" class="node">
<title>src/pages/home/HomePage.tsx</title>
<g id="a_node25"><a xlink:href="src/pages/home/HomePage.tsx" xlink:title="HomePage.tsx">
<path fill="#bbfeff" stroke="black" d="M268.08,-406.62C268.08,-406.62 206.42,-406.62 206.42,-406.62 203.21,-406.62 200,-403.42 200,-400.21 200,-400.21 200,-393.79 200,-393.79 200,-390.58 203.21,-387.38 206.42,-387.38 206.42,-387.38 268.08,-387.38 268.08,-387.38 271.29,-387.38 274.5,-390.58 274.5,-393.79 274.5,-393.79 274.5,-400.21 274.5,-400.21 274.5,-403.42 271.29,-406.62 268.08,-406.62"/>
<text text-anchor="start" x="208" y="-394.07" font-family="Helvetica,sans-Serif" font-size="9.00">HomePage.tsx</text>
</a>
</g>
</g>
<!-- src/router.tsx&#45;&gt;src/pages/home/HomePage.tsx -->
<g id="edge33" class="edge">
<title>src/router.tsx&#45;&gt;src/pages/home/HomePage.tsx</title>
<path fill="none" stroke="#000000" stroke-width="2" stroke-opacity="0.200000" d="M152.59,-425.7C166.53,-420.92 183.74,-415.02 198.92,-409.81"/>
<polygon fill="#000000" fill-opacity="0.200000" stroke="#000000" stroke-width="2" stroke-opacity="0.200000" points="199.25,-411.91 204.25,-407.98 197.89,-407.94 199.25,-411.91"/>
</g>
<!-- src/pages/admin/AdminDashboardPage.tsx&#45;&gt;src/atoms/auth.ts -->
<g id="edge11" class="edge">
<title>src/pages/admin/AdminDashboardPage.tsx&#45;&gt;src/atoms/auth.ts</title>
<path fill="none" stroke="#000000" stroke-width="2" stroke-opacity="0.200000" d="M248.18,-280.75C262.31,-295.37 287.66,-324.51 298.12,-355 304.99,-374.99 292.68,-528.7 306.12,-545 311.76,-551.83 423.52,-575.79 481.79,-587.89"/>
<polygon fill="#000000" fill-opacity="0.200000" stroke="#000000" stroke-width="2" stroke-opacity="0.200000" points="481.06,-589.88 487.36,-589.04 481.91,-585.77 481.06,-589.88"/>
</g>
<!-- src/pages/admin/tabs/BoardsStatsTab.tsx -->
<g id="node16" class="node">
<title>src/pages/admin/tabs/BoardsStatsTab.tsx</title>
<g id="a_node16"><a xlink:href="src/pages/admin/tabs/BoardsStatsTab.tsx" xlink:title="BoardsStatsTab.tsx">
<path fill="#bbfeff" stroke="black" d="M414.08,-202.62C414.08,-202.62 332.17,-202.62 332.17,-202.62 328.96,-202.62 325.75,-199.42 325.75,-196.21 325.75,-196.21 325.75,-189.79 325.75,-189.79 325.75,-186.58 328.96,-183.38 332.17,-183.38 332.17,-183.38 414.08,-183.38 414.08,-183.38 417.29,-183.38 420.5,-186.58 420.5,-189.79 420.5,-189.79 420.5,-196.21 420.5,-196.21 420.5,-199.42 417.29,-202.62 414.08,-202.62"/>
<text text-anchor="start" x="333.75" y="-190.07" font-family="Helvetica,sans-Serif" font-size="9.00">BoardsStatsTab.tsx</text>
</a>
</g>
</g>
<!-- src/pages/admin/AdminDashboardPage.tsx&#45;&gt;src/pages/admin/tabs/BoardsStatsTab.tsx -->
<g id="edge12" class="edge">
<title>src/pages/admin/AdminDashboardPage.tsx&#45;&gt;src/pages/admin/tabs/BoardsStatsTab.tsx</title>
<path fill="none" stroke="#000000" stroke-width="2" stroke-opacity="0.200000" d="M245.88,-261.21C257.37,-247.17 280.53,-221.51 306.12,-208 309.61,-206.16 313.31,-204.55 317.12,-203.13"/>
<polygon fill="#000000" fill-opacity="0.200000" stroke="#000000" stroke-width="2" stroke-opacity="0.200000" points="317.66,-205.16 322.7,-201.28 316.34,-201.17 317.66,-205.16"/>
</g>
<!-- src/pages/admin/tabs/PaymentsTab.tsx -->
<g id="node17" class="node">
<title>src/pages/admin/tabs/PaymentsTab.tsx</title>
<g id="a_node17"><a xlink:href="src/pages/admin/tabs/PaymentsTab.tsx" xlink:title="PaymentsTab.tsx">
<path fill="#bbfeff" stroke="black" d="M409.21,-295.62C409.21,-295.62 337.04,-295.62 337.04,-295.62 333.83,-295.62 330.62,-292.42 330.62,-289.21 330.62,-289.21 330.62,-282.79 330.62,-282.79 330.62,-279.58 333.83,-276.38 337.04,-276.38 337.04,-276.38 409.21,-276.38 409.21,-276.38 412.42,-276.38 415.62,-279.58 415.62,-282.79 415.62,-282.79 415.62,-289.21 415.62,-289.21 415.62,-292.42 412.42,-295.62 409.21,-295.62"/>
<text text-anchor="start" x="338.62" y="-283.07" font-family="Helvetica,sans-Serif" font-size="9.00">PaymentsTab.tsx</text>
</a>
</g>
</g>
<!-- src/pages/admin/AdminDashboardPage.tsx&#45;&gt;src/pages/admin/tabs/PaymentsTab.tsx -->
<g id="edge13" class="edge">
<title>src/pages/admin/AdminDashboardPage.tsx&#45;&gt;src/pages/admin/tabs/PaymentsTab.tsx</title>
<path fill="none" stroke="#000000" stroke-width="2" stroke-opacity="0.200000" d="M298.53,-277.75C306.21,-278.61 314.01,-279.49 321.52,-280.33"/>
<polygon fill="#000000" fill-opacity="0.200000" stroke="#000000" stroke-width="2" stroke-opacity="0.200000" points="320.97,-282.38 327.17,-280.96 321.44,-278.21 320.97,-282.38"/>
</g>
<!-- src/pages/admin/tabs/PlayersTab.tsx -->
<g id="node18" class="node">
<title>src/pages/admin/tabs/PlayersTab.tsx</title>
<g id="a_node18"><a xlink:href="src/pages/admin/tabs/PlayersTab.tsx" xlink:title="PlayersTab.tsx">
<path fill="#bbfeff" stroke="black" d="M403.96,-233.62C403.96,-233.62 342.29,-233.62 342.29,-233.62 339.08,-233.62 335.88,-230.42 335.88,-227.21 335.88,-227.21 335.88,-220.79 335.88,-220.79 335.88,-217.58 339.08,-214.38 342.29,-214.38 342.29,-214.38 403.96,-214.38 403.96,-214.38 407.17,-214.38 410.38,-217.58 410.38,-220.79 410.38,-220.79 410.38,-227.21 410.38,-227.21 410.38,-230.42 407.17,-233.62 403.96,-233.62"/>
<text text-anchor="start" x="343.88" y="-221.07" font-family="Helvetica,sans-Serif" font-size="9.00">PlayersTab.tsx</text>
</a>
</g>
</g>
<!-- src/pages/admin/AdminDashboardPage.tsx&#45;&gt;src/pages/admin/tabs/PlayersTab.tsx -->
<g id="edge14" class="edge">
<title>src/pages/admin/AdminDashboardPage.tsx&#45;&gt;src/pages/admin/tabs/PlayersTab.tsx</title>
<path fill="none" stroke="#000000" stroke-width="2" stroke-opacity="0.200000" d="M256.81,-260.91C270.2,-253.96 288.88,-244.94 306.12,-239 312.69,-236.74 319.73,-234.72 326.69,-232.96"/>
<polygon fill="#000000" fill-opacity="0.200000" stroke="#000000" stroke-width="2" stroke-opacity="0.200000" points="327.13,-235.01 332.47,-231.57 326.15,-230.93 327.13,-235.01"/>
</g>
<!-- src/pages/admin/tabs/WinningNumbersTab.tsx -->
<g id="node19" class="node">
<title>src/pages/admin/tabs/WinningNumbersTab.tsx</title>
<g id="a_node19"><a xlink:href="src/pages/admin/tabs/WinningNumbersTab.tsx" xlink:title="WinningNumbersTab.tsx">
<path fill="#bbfeff" stroke="black" d="M425.71,-264.62C425.71,-264.62 320.54,-264.62 320.54,-264.62 317.33,-264.62 314.12,-261.42 314.12,-258.21 314.12,-258.21 314.12,-251.79 314.12,-251.79 314.12,-248.58 317.33,-245.38 320.54,-245.38 320.54,-245.38 425.71,-245.38 425.71,-245.38 428.92,-245.38 432.12,-248.58 432.12,-251.79 432.12,-251.79 432.12,-258.21 432.12,-258.21 432.12,-261.42 428.92,-264.62 425.71,-264.62"/>
<text text-anchor="start" x="322.12" y="-252.07" font-family="Helvetica,sans-Serif" font-size="9.00">WinningNumbersTab.tsx</text>
</a>
</g>
</g>
<!-- src/pages/admin/AdminDashboardPage.tsx&#45;&gt;src/pages/admin/tabs/WinningNumbersTab.tsx -->
<g id="edge15" class="edge">
<title>src/pages/admin/AdminDashboardPage.tsx&#45;&gt;src/pages/admin/tabs/WinningNumbersTab.tsx</title>
<path fill="none" stroke="#000000" stroke-width="2" stroke-opacity="0.200000" d="M298.53,-263.8C300.78,-263.53 303.03,-263.26 305.29,-262.99"/>
<polygon fill="#000000" fill-opacity="0.200000" stroke="#000000" stroke-width="2" stroke-opacity="0.200000" points="305.26,-265.11 310.97,-262.31 304.76,-260.94 305.26,-265.11"/>
</g>
<!-- src/pages/admin/tabs/BoardsStatsTab.tsx&#45;&gt;src/core/generated&#45;client.ts -->
<g id="edge16" class="edge">
<title>src/pages/admin/tabs/BoardsStatsTab.tsx&#45;&gt;src/core/generated&#45;client.ts</title>
<path fill="none" stroke="#000000" stroke-opacity="0.200000" d="M420.94,-196.65C498.3,-203.49 648.45,-220.5 690.25,-252 696.6,-256.79 692.13,-262.93 698.25,-268 698.69,-268.37 699.14,-268.72 699.6,-269.07"/>
<polygon fill="none" stroke="#000000" stroke-opacity="0.200000" points="698.46,-270.84 704.65,-272.3 700.73,-267.3 698.46,-270.84"/>
</g>
<!-- src/pages/admin/tabs/BoardsStatsTab.tsx&#45;&gt;src/utilities/playersApi.ts -->
<g id="edge19" class="edge">
<title>src/pages/admin/tabs/BoardsStatsTab.tsx&#45;&gt;src/utilities/playersApi.ts</title>
<path fill="none" stroke="#000000" stroke-width="2" stroke-opacity="0.200000" d="M376.08,-183.08C382.13,-155.33 403.46,-76.93 456.12,-46 505.42,-17.05 529.11,-32.87 584.75,-46 588.62,-46.91 589.05,-48.55 592.75,-50 595.8,-51.19 598.99,-52.34 602.22,-53.44"/>
<polygon fill="#000000" fill-opacity="0.200000" stroke="#000000" stroke-width="2" stroke-opacity="0.200000" points="601.56,-55.43 607.91,-55.27 602.85,-51.43 601.56,-55.43"/>
</g>
<!-- src/utilities/boardsApi.ts -->
<g id="node20" class="node">
<title>src/utilities/boardsApi.ts</title>
<g id="a_node20"><a xlink:href="src/utilities/boardsApi.ts" xlink:title="boardsApi.ts">
<path fill="#ddfeff" stroke="black" d="M672.96,-43.62C672.96,-43.62 618.04,-43.62 618.04,-43.62 614.83,-43.62 611.62,-40.42 611.62,-37.21 611.62,-37.21 611.62,-30.79 611.62,-30.79 611.62,-27.58 614.83,-24.38 618.04,-24.38 618.04,-24.38 672.96,-24.38 672.96,-24.38 676.17,-24.38 679.38,-27.58 679.38,-30.79 679.38,-30.79 679.38,-37.21 679.38,-37.21 679.38,-40.42 676.17,-43.62 672.96,-43.62"/>
<text text-anchor="start" x="619.62" y="-31.07" font-family="Helvetica,sans-Serif" font-size="9.00">boardsApi.ts</text>
</a>
</g>
</g>
<!-- src/pages/admin/tabs/BoardsStatsTab.tsx&#45;&gt;src/utilities/boardsApi.ts -->
<g id="edge17" class="edge">
<title>src/pages/admin/tabs/BoardsStatsTab.tsx&#45;&gt;src/utilities/boardsApi.ts</title>
<path fill="none" stroke="#000000" stroke-width="2" stroke-opacity="0.200000" d="M375.43,-183.16C379.99,-153.2 398.24,-62.97 456.12,-27 502.22,1.64 567.64,-9.76 608.01,-21.35"/>
<polygon fill="#000000" fill-opacity="0.200000" stroke="#000000" stroke-width="2" stroke-opacity="0.200000" points="607.22,-23.3 613.57,-23.01 608.43,-19.28 607.22,-23.3"/>
</g>
<!-- src/utilities/gamesApi.ts -->
<g id="node21" class="node">
<title>src/utilities/gamesApi.ts</title>
<g id="a_node21"><a xlink:href="src/utilities/gamesApi.ts" xlink:title="gamesApi.ts">
<path fill="#ddfeff" stroke="black" d="M672.21,-105.62C672.21,-105.62 618.79,-105.62 618.79,-105.62 615.58,-105.62 612.38,-102.42 612.38,-99.21 612.38,-99.21 612.38,-92.79 612.38,-92.79 612.38,-89.58 615.58,-86.38 618.79,-86.38 618.79,-86.38 672.21,-86.38 672.21,-86.38 675.42,-86.38 678.62,-89.58 678.62,-92.79 678.62,-92.79 678.62,-99.21 678.62,-99.21 678.62,-102.42 675.42,-105.62 672.21,-105.62"/>
<text text-anchor="start" x="620.38" y="-93.08" font-family="Helvetica,sans-Serif" font-size="9.00">gamesApi.ts</text>
</a>
</g>
</g>
<!-- src/pages/admin/tabs/BoardsStatsTab.tsx&#45;&gt;src/utilities/gamesApi.ts -->
<g id="edge18" class="edge">
<title>src/pages/admin/tabs/BoardsStatsTab.tsx&#45;&gt;src/utilities/gamesApi.ts</title>
<path fill="none" stroke="#000000" stroke-width="2" stroke-opacity="0.200000" d="M377.04,-183.18C384.97,-158.5 409.52,-94.05 456.12,-69 506.48,-41.93 534.35,-42.03 584.75,-69 590.4,-72.02 587.58,-77.21 592.75,-81 596.11,-83.46 599.87,-85.52 603.78,-87.24"/>
<polygon fill="#000000" fill-opacity="0.200000" stroke="#000000" stroke-width="2" stroke-opacity="0.200000" points="602.77,-89.11 609.13,-89.26 604.25,-85.18 602.77,-89.11"/>
</g>
<!-- src/pages/admin/tabs/PaymentsTab.tsx&#45;&gt;src/hooks/useAdminPayments.ts -->
<g id="edge20" class="edge">
<title>src/pages/admin/tabs/PaymentsTab.tsx&#45;&gt;src/hooks/useAdminPayments.ts</title>
<path fill="none" stroke="#000000" stroke-width="2" stroke-opacity="0.200000" d="M415.93,-284.54C427.35,-282.38 439.05,-278.34 448.12,-271 492.1,-235.44 508.47,-166.04 513.99,-132.73"/>
<polygon fill="#000000" fill-opacity="0.200000" stroke="#000000" stroke-width="2" stroke-opacity="0.200000" points="516.04,-133.22 514.86,-126.97 511.88,-132.59 516.04,-133.22"/>
</g>
<!-- src/pages/admin/tabs/PlayersTab.tsx&#45;&gt;src/core/generated&#45;client.ts -->
<g id="edge21" class="edge">
<title>src/pages/admin/tabs/PlayersTab.tsx&#45;&gt;src/core/generated&#45;client.ts</title>
<path fill="none" stroke="#000000" stroke-opacity="0.200000" d="M410.63,-228.98C490.89,-239.94 676.63,-265.38 690.25,-268 695.32,-268.97 700.6,-270.1 705.84,-271.3"/>
<polygon fill="none" stroke="#000000" stroke-opacity="0.200000" points="705.15,-273.29 711.47,-272.61 706.1,-269.2 705.15,-273.29"/>
</g>
<!-- src/pages/admin/tabs/PlayersTab.tsx&#45;&gt;src/utilities/playersApi.ts -->
<g id="edge22" class="edge">
<title>src/pages/admin/tabs/PlayersTab.tsx&#45;&gt;src/utilities/playersApi.ts</title>
<path fill="none" stroke="#000000" stroke-width="2" stroke-opacity="0.200000" d="M410.83,-225.45C424.52,-223.97 438.95,-219.61 448.12,-209 458.68,-196.79 444.41,-75.09 456.12,-64 476.36,-44.85 553.12,-51.63 602.18,-58.31"/>
<polygon fill="#000000" fill-opacity="0.200000" stroke="#000000" stroke-width="2" stroke-opacity="0.200000" points="601.77,-60.38 608.01,-59.13 602.36,-56.22 601.77,-60.38"/>
</g>
<!-- src/pages/admin/tabs/PlayersTab.tsx&#45;&gt;src/utilities/transactionsApi.ts -->
<g id="edge23" class="edge">
<title>src/pages/admin/tabs/PlayersTab.tsx&#45;&gt;src/utilities/transactionsApi.ts</title>
<path fill="none" stroke="#000000" stroke-width="2" stroke-opacity="0.200000" d="M410.75,-225.39C424.43,-223.9 438.88,-219.55 448.12,-209 465.16,-189.57 437.24,-110.63 456.12,-93 497.92,-53.99 537.13,-61.38 584.75,-93 592.38,-98.07 585.91,-105.91 592.75,-112 592.9,-112.13 593.05,-112.26 593.2,-112.39"/>
<polygon fill="#000000" fill-opacity="0.200000" stroke="#000000" stroke-width="2" stroke-opacity="0.200000" points="591.98,-114.1 598.11,-115.78 594.36,-110.64 591.98,-114.1"/>
</g>
<!-- src/pages/admin/tabs/WinningNumbersTab.tsx&#45;&gt;src/core/generated&#45;client.ts -->
<g id="edge24" class="edge">
<title>src/pages/admin/tabs/WinningNumbersTab.tsx&#45;&gt;src/core/generated&#45;client.ts</title>
<path fill="none" stroke="#000000" stroke-opacity="0.200000" d="M432.62,-259.34C505.35,-264.75 628.44,-273.89 698.39,-279.08"/>
<polygon fill="none" stroke="#000000" stroke-opacity="0.200000" points="698.17,-281.17 704.31,-279.52 698.49,-276.98 698.17,-281.17"/>
</g>
<!-- src/pages/admin/tabs/WinningNumbersTab.tsx&#45;&gt;src/utilities/gamesApi.ts -->
<g id="edge25" class="edge">
<title>src/pages/admin/tabs/WinningNumbersTab.tsx&#45;&gt;src/utilities/gamesApi.ts</title>
<path fill="none" stroke="#000000" stroke-width="2" stroke-opacity="0.200000" d="M432.43,-251.13C438.41,-248.55 443.84,-244.96 448.12,-240 458.82,-227.62 444.25,-104.25 456.12,-93 476.53,-73.68 554.39,-81.64 603.4,-88.97"/>
<polygon fill="#000000" fill-opacity="0.200000" stroke="#000000" stroke-width="2" stroke-opacity="0.200000" points="602.95,-91.03 609.2,-89.86 603.59,-86.88 602.95,-91.03"/>
</g>
<!-- src/utilities/boardsApi.ts&#45;&gt;src/core/generated&#45;client.ts -->
<g id="edge38" class="edge">
<title>src/utilities/boardsApi.ts&#45;&gt;src/core/generated&#45;client.ts</title>
<path fill="none" stroke="#000000" stroke-width="2" stroke-opacity="0.200000" d="M679.55,-40.33C683.71,-42.45 687.47,-45.26 690.25,-49 704.76,-68.55 683.22,-248.85 698.25,-268 698.52,-268.34 698.79,-268.67 699.07,-268.99"/>
<polygon fill="#000000" fill-opacity="0.200000" stroke="#000000" stroke-width="2" stroke-opacity="0.200000" points="697.58,-270.49 703.5,-272.82 700.33,-267.31 697.58,-270.49"/>
</g>
<!-- src/utilities/boardsApi.ts&#45;&gt;src/core/baseUrl.ts -->
<g id="edge37" class="edge">
<title>src/utilities/boardsApi.ts&#45;&gt;src/core/baseUrl.ts</title>
<path fill="none" stroke="#000000" stroke-width="2" stroke-opacity="0.200000" d="M679.49,-40.37C683.66,-42.48 687.44,-45.28 690.25,-49 710.24,-75.46 679.33,-170.77 698.25,-198 702.52,-204.15 708.8,-208.66 715.56,-211.98"/>
<polygon fill="#000000" fill-opacity="0.200000" stroke="#000000" stroke-width="2" stroke-opacity="0.200000" points="714.48,-213.8 720.83,-214.18 716.1,-209.93 714.48,-213.8"/>
</g>
<!-- src/utilities/boardsApi.ts&#45;&gt;src/utilities/customFetch.ts -->
<g id="edge39" class="edge">
<title>src/utilities/boardsApi.ts&#45;&gt;src/utilities/customFetch.ts</title>
<path fill="none" stroke="#000000" stroke-width="2" stroke-opacity="0.200000" d="M679.76,-43.55C683.41,-45.13 686.99,-46.94 690.25,-49 709.42,-61.08 727.05,-80.33 738.35,-94.17"/>
<polygon fill="#000000" fill-opacity="0.200000" stroke="#000000" stroke-width="2" stroke-opacity="0.200000" points="736.69,-95.46 742.06,-98.86 739.98,-92.85 736.69,-95.46"/>
</g>
<!-- src/utilities/gamesApi.ts&#45;&gt;src/core/generated&#45;client.ts -->
<g id="edge42" class="edge">
<title>src/utilities/gamesApi.ts&#45;&gt;src/core/generated&#45;client.ts</title>
<path fill="none" stroke="#000000" stroke-width="2" stroke-opacity="0.200000" d="M679.07,-102.15C683.41,-104.28 687.35,-107.15 690.25,-111 711.27,-138.9 676.48,-240.68 698.25,-268 698.52,-268.34 698.79,-268.66 699.07,-268.99"/>
<polygon fill="#000000" fill-opacity="0.200000" stroke="#000000" stroke-width="2" stroke-opacity="0.200000" points="697.61,-270.49 703.53,-272.79 700.33,-267.3 697.61,-270.49"/>
</g>
<!-- src/utilities/gamesApi.ts&#45;&gt;src/core/baseUrl.ts -->
<g id="edge41" class="edge">
<title>src/utilities/gamesApi.ts&#45;&gt;src/core/baseUrl.ts</title>
<path fill="none" stroke="#000000" stroke-width="2" stroke-opacity="0.200000" d="M678.93,-102.25C683.29,-104.38 687.27,-107.21 690.25,-111 702.25,-126.26 686.87,-182.27 698.25,-198 702.59,-204.01 708.85,-208.46 715.54,-211.76"/>
<polygon fill="#000000" fill-opacity="0.200000" stroke="#000000" stroke-width="2" stroke-opacity="0.200000" points="714.38,-213.55 720.73,-213.95 716.02,-209.68 714.38,-213.55"/>
</g>
<!-- src/utilities/gamesApi.ts&#45;&gt;src/utilities/customFetch.ts -->
<g id="edge43" class="edge">
<title>src/utilities/gamesApi.ts&#45;&gt;src/utilities/customFetch.ts</title>
<path fill="none" stroke="#000000" stroke-width="2" stroke-opacity="0.200000" d="M679.03,-100.66C686.78,-101.78 695.22,-102.98 703.49,-104.17"/>
<polygon fill="#000000" fill-opacity="0.200000" stroke="#000000" stroke-width="2" stroke-opacity="0.200000" points="703.14,-106.24 709.37,-105.01 703.73,-102.08 703.14,-106.24"/>
</g>
<!-- src/pages/auth/Login.tsx -->
<g id="node22" class="node">
<title>src/pages/auth/Login.tsx</title>
<g id="a_node22"><a xlink:href="src/pages/auth/Login.tsx" xlink:title="Login.tsx">
<path fill="#bbfeff" stroke="black" d="M393.71,-498.62C393.71,-498.62 352.54,-498.62 352.54,-498.62 349.33,-498.62 346.12,-495.42 346.12,-492.21 346.12,-492.21 346.12,-485.79 346.12,-485.79 346.12,-482.58 349.33,-479.38 352.54,-479.38 352.54,-479.38 393.71,-479.38 393.71,-479.38 396.92,-479.38 400.12,-482.58 400.12,-485.79 400.12,-485.79 400.12,-492.21 400.12,-492.21 400.12,-495.42 396.92,-498.62 393.71,-498.62"/>
<text text-anchor="start" x="354.75" y="-486.07" font-family="Helvetica,sans-Serif" font-size="9.00">Login.tsx</text>
</a>
</g>
</g>
<!-- src/pages/auth/Login.tsx&#45;&gt;src/atoms/auth.ts -->
<g id="edge26" class="edge">
<title>src/pages/auth/Login.tsx&#45;&gt;src/atoms/auth.ts</title>
<path fill="none" stroke="#000000" stroke-width="2" stroke-opacity="0.200000" d="M387.52,-498.97C412.53,-517.6 466.49,-557.77 496.07,-579.79"/>
<polygon fill="#000000" fill-opacity="0.200000" stroke="#000000" stroke-width="2" stroke-opacity="0.200000" points="494.54,-581.27 500.61,-583.17 497.05,-577.9 494.54,-581.27"/>
</g>
<!-- src/pages/auth/LoginPage.tsx&#45;&gt;src/pages/auth/Login.tsx -->
<g id="edge27" class="edge">
<title>src/pages/auth/LoginPage.tsx&#45;&gt;src/pages/auth/Login.tsx</title>
<path fill="none" stroke="#000000" stroke-width="2" stroke-opacity="0.200000" d="M273.77,-477.98C293.3,-480.17 317.44,-482.87 336.92,-485.06"/>
<polygon fill="#000000" fill-opacity="0.200000" stroke="#000000" stroke-width="2" stroke-opacity="0.200000" points="336.58,-487.13 342.77,-485.71 337.05,-482.96 336.58,-487.13"/>
</g>
<!-- src/pages/auth/registr.tsx -->
<g id="node24" class="node">
<title>src/pages/auth/registr.tsx</title>
<g id="a_node24"><a xlink:href="src/pages/auth/registr.tsx" xlink:title="no&#45;orphans">
<path fill="#ccffcc" stroke="orange" d="M259.46,-514.62C259.46,-514.62 215.04,-514.62 215.04,-514.62 211.83,-514.62 208.62,-511.42 208.62,-508.21 208.62,-508.21 208.62,-501.79 208.62,-501.79 208.62,-498.58 211.83,-495.38 215.04,-495.38 215.04,-495.38 259.46,-495.38 259.46,-495.38 262.67,-495.38 265.88,-498.58 265.88,-501.79 265.88,-501.79 265.88,-508.21 265.88,-508.21 265.88,-511.42 262.67,-514.62 259.46,-514.62"/>
<text text-anchor="start" x="216.62" y="-502.07" font-family="Helvetica,sans-Serif" font-size="9.00" fill="orange">registr.tsx</text>
</a>
</g>
</g>
<!-- src/pages/home/components/HeroSection.tsx -->
<g id="node26" class="node">
<title>src/pages/home/components/HeroSection.tsx</title>
<g id="a_node26"><a xlink:href="src/pages/home/components/HeroSection.tsx" xlink:title="HeroSection.tsx">
<path fill="#bbfeff" stroke="black" d="M406.96,-393.62C406.96,-393.62 339.29,-393.62 339.29,-393.62 336.08,-393.62 332.88,-390.42 332.88,-387.21 332.88,-387.21 332.88,-380.79 332.88,-380.79 332.88,-377.58 336.08,-374.38 339.29,-374.38 339.29,-374.38 406.96,-374.38 406.96,-374.38 410.17,-374.38 413.38,-377.58 413.38,-380.79 413.38,-380.79 413.38,-387.21 413.38,-387.21 413.38,-390.42 410.17,-393.62 406.96,-393.62"/>
<text text-anchor="start" x="340.88" y="-381.07" font-family="Helvetica,sans-Serif" font-size="9.00">HeroSection.tsx</text>
</a>
</g>
</g>
<!-- src/pages/home/HomePage.tsx&#45;&gt;src/pages/home/components/HeroSection.tsx -->
<g id="edge28" class="edge">
<title>src/pages/home/HomePage.tsx&#45;&gt;src/pages/home/components/HeroSection.tsx</title>
<path fill="none" stroke="#000000" stroke-width="2" stroke-opacity="0.200000" d="M274.83,-393.45C289.99,-391.98 307.77,-390.25 323.97,-388.68"/>
<polygon fill="#000000" fill-opacity="0.200000" stroke="#000000" stroke-width="2" stroke-opacity="0.200000" points="323.99,-390.78 329.76,-388.11 323.58,-386.6 323.99,-390.78"/>
</g>
<!-- src/pages/home/components/BoardPreview.tsx -->
<g id="node27" class="node">
<title>src/pages/home/components/BoardPreview.tsx</title>
<g id="a_node27"><a xlink:href="src/pages/home/components/BoardPreview.tsx" xlink:title="BoardPreview.tsx">
<path fill="#bbfeff" stroke="black" d="M554.33,-393.62C554.33,-393.62 480.67,-393.62 480.67,-393.62 477.46,-393.62 474.25,-390.42 474.25,-387.21 474.25,-387.21 474.25,-380.79 474.25,-380.79 474.25,-377.58 477.46,-374.38 480.67,-374.38 480.67,-374.38 554.33,-374.38 554.33,-374.38 557.54,-374.38 560.75,-377.58 560.75,-380.79 560.75,-380.79 560.75,-387.21 560.75,-387.21 560.75,-390.42 557.54,-393.62 554.33,-393.62"/>
<text text-anchor="start" x="482.25" y="-381.07" font-family="Helvetica,sans-Serif" font-size="9.00">BoardPreview.tsx</text>
</a>
</g>
</g>
<!-- src/pages/home/components/HeroSection.tsx&#45;&gt;src/pages/home/components/BoardPreview.tsx -->
<g id="edge29" class="edge">
<title>src/pages/home/components/HeroSection.tsx&#45;&gt;src/pages/home/components/BoardPreview.tsx</title>
<path fill="none" stroke="#000000" stroke-width="2" stroke-opacity="0.200000" d="M413.78,-384C429.69,-384 448.23,-384 465.14,-384"/>
<polygon fill="#000000" fill-opacity="0.200000" stroke="#000000" stroke-width="2" stroke-opacity="0.200000" points="464.79,-386.1 470.79,-384 464.79,-381.9 464.79,-386.1"/>
</g>
<!-- src/utilities/customFetch.ts&#45;&gt;src/core/problemdetails.ts -->
<g id="edge40" class="edge">
<title>src/utilities/customFetch.ts&#45;&gt;src/core/problemdetails.ts</title>
<path fill="none" stroke="#000000" stroke-opacity="0.200000" d="M741.61,-120.84C721.6,-140.8 681.18,-187.83 694.25,-231 695.69,-235.77 698.53,-239.49 702.2,-242.4"/>
<polygon fill="none" stroke="#000000" stroke-opacity="0.200000" points="701.08,-244.18 707.29,-245.54 703.28,-240.6 701.08,-244.18"/>
</g>
<!-- src/vite&#45;env.d.ts -->
<g id="node29" class="node">
<title>src/vite&#45;env.d.ts</title>
<g id="a_node29"><a xlink:href="src/vite-env.d.ts" xlink:title="vite&#45;env.d.ts">
<path fill="#ccffcc" stroke="black" d="M75.08,-595.62C75.08,-595.62 22.42,-595.62 22.42,-595.62 19.21,-595.62 16,-592.42 16,-589.21 16,-589.21 16,-582.79 16,-582.79 16,-579.58 19.21,-576.38 22.42,-576.38 22.42,-576.38 75.08,-576.38 75.08,-576.38 78.29,-576.38 81.5,-579.58 81.5,-582.79 81.5,-582.79 81.5,-589.21 81.5,-589.21 81.5,-592.42 78.29,-595.62 75.08,-595.62"/>
<text text-anchor="start" x="24" y="-583.08" font-family="Helvetica,sans-Serif" font-size="9.00">vite&#45;env.d.ts</text>
</a>
</g>
</g>
</g>
</svg>
