<?xml version="1.0" encoding="UTF-8" standalone="no"?>
<!DOCTYPE svg PUBLIC "-//W3C//DTD SVG 1.1//EN"
 "http://www.w3.org/Graphics/SVG/1.1/DTD/svg11.dtd">
<!-- Generated by graphviz version 12.2.1 (20241206.2353)
 -->
<!-- Title: dependency&#45;cruiser output Pages: 1 -->
<svg width="716pt" height="719pt"
 viewBox="0.00 0.00 715.88 719.00" xmlns="http://www.w3.org/2000/svg" xmlns:xlink="http://www.w3.org/1999/xlink">
<g id="graph0" class="graph" transform="scale(1 1) rotate(0) translate(4 715)">
<title>dependency&#45;cruiser output</title>
<polygon fill="white" stroke="none" points="-4,4 -4,-715 711.88,-715 711.88,4 -4,4"/>
<g id="clust1" class="cluster">
<title>cluster_src</title>
<path fill="#ffffff" stroke="black" stroke-width="2" d="M20,-8C20,-8 687.88,-8 687.88,-8 693.88,-8 699.88,-14 699.88,-20 699.88,-20 699.88,-691 699.88,-691 699.88,-697 693.88,-703 687.88,-703 687.88,-703 20,-703 20,-703 14,-703 8,-697 8,-691 8,-691 8,-20 8,-20 8,-14 14,-8 20,-8"/>
<text text-anchor="middle" x="353.94" y="-690.45" font-family="Helvetica,sans-Serif" font-weight="bold" font-size="9.00">src</text>
</g>
<g id="clust2" class="cluster">
<title>cluster_src/atoms</title>
<path fill="#ffffff" stroke="black" stroke-width="2" d="M485.88,-16C485.88,-16 531.88,-16 531.88,-16 537.88,-16 543.88,-22 543.88,-28 543.88,-28 543.88,-59 543.88,-59 543.88,-65 537.88,-71 531.88,-71 531.88,-71 485.88,-71 485.88,-71 479.88,-71 473.88,-65 473.88,-59 473.88,-59 473.88,-28 473.88,-28 473.88,-22 479.88,-16 485.88,-16"/>
<text text-anchor="middle" x="508.88" y="-58.45" font-family="Helvetica,sans-Serif" font-weight="bold" font-size="9.00">atoms</text>
</g>
<g id="clust3" class="cluster">
<title>cluster_src/components</title>
<path fill="#ffffff" stroke="black" stroke-width="2" d="M101.5,-92C101.5,-92 415.12,-92 415.12,-92 421.12,-92 427.12,-98 427.12,-104 427.12,-104 427.12,-170 427.12,-170 427.12,-176 421.12,-182 415.12,-182 415.12,-182 101.5,-182 101.5,-182 95.5,-182 89.5,-176 89.5,-170 89.5,-170 89.5,-104 89.5,-104 89.5,-98 95.5,-92 101.5,-92"/>
<text text-anchor="middle" x="258.31" y="-169.45" font-family="Helvetica,sans-Serif" font-weight="bold" font-size="9.00">components</text>
</g>
<g id="clust4" class="cluster">
<title>cluster_src/components/layout</title>
<path fill="#ffffff" stroke="black" stroke-width="2" d="M200.25,-100C200.25,-100 407.12,-100 407.12,-100 413.12,-100 419.12,-106 419.12,-112 419.12,-112 419.12,-143 419.12,-143 419.12,-149 413.12,-155 407.12,-155 407.12,-155 200.25,-155 200.25,-155 194.25,-155 188.25,-149 188.25,-143 188.25,-143 188.25,-112 188.25,-112 188.25,-106 194.25,-100 200.25,-100"/>
<text text-anchor="middle" x="303.69" y="-142.45" font-family="Helvetica,sans-Serif" font-weight="bold" font-size="9.00">layout</text>
</g>
<g id="clust5" class="cluster">
<title>cluster_src/core</title>
<path fill="#ffffff" stroke="black" stroke-width="2" d="M596.12,-266C596.12,-266 679.88,-266 679.88,-266 685.88,-266 691.88,-272 691.88,-278 691.88,-278 691.88,-371 691.88,-371 691.88,-377 685.88,-383 679.88,-383 679.88,-383 596.12,-383 596.12,-383 590.12,-383 584.12,-377 584.12,-371 584.12,-371 584.12,-278 584.12,-278 584.12,-272 590.12,-266 596.12,-266"/>
<text text-anchor="middle" x="638" y="-370.45" font-family="Helvetica,sans-Serif" font-weight="bold" font-size="9.00">core</text>
</g>
<g id="clust6" class="cluster">
<title>cluster_src/pages</title>
<path fill="#ffffff" stroke="black" stroke-width="2" d="M172.38,-266C172.38,-266 564.12,-266 564.12,-266 570.12,-266 576.12,-272 576.12,-278 576.12,-278 576.12,-664 576.12,-664 576.12,-670 570.12,-676 564.12,-676 564.12,-676 172.38,-676 172.38,-676 166.38,-676 160.38,-670 160.38,-664 160.38,-664 160.38,-278 160.38,-278 160.38,-272 166.38,-266 172.38,-266"/>
<text text-anchor="middle" x="368.25" y="-663.45" font-family="Helvetica,sans-Serif" font-weight="bold" font-size="9.00">pages</text>
</g>
<g id="clust7" class="cluster">
<title>cluster_src/pages/admin</title>
<path fill="#ffffff" stroke="black" stroke-width="2" d="M180.38,-274C180.38,-274 436.12,-274 436.12,-274 442.12,-274 448.12,-280 448.12,-286 448.12,-286 448.12,-445 448.12,-445 448.12,-451 442.12,-457 436.12,-457 436.12,-457 180.38,-457 180.38,-457 174.38,-457 168.38,-451 168.38,-445 168.38,-445 168.38,-286 168.38,-286 168.38,-280 174.38,-274 180.38,-274"/>
<text text-anchor="middle" x="308.25" y="-444.45" font-family="Helvetica,sans-Serif" font-weight="bold" font-size="9.00">admin</text>
</g>
<g id="clust8" class="cluster">
<title>cluster_src/pages/admin/tabs</title>
<path fill="#ffffff" stroke="black" stroke-width="2" d="M318.12,-282C318.12,-282 428.12,-282 428.12,-282 434.12,-282 440.12,-288 440.12,-294 440.12,-294 440.12,-418 440.12,-418 440.12,-424 434.12,-430 428.12,-430 428.12,-430 318.12,-430 318.12,-430 312.12,-430 306.12,-424 306.12,-418 306.12,-418 306.12,-294 306.12,-294 306.12,-288 312.12,-282 318.12,-282"/>
<text text-anchor="middle" x="373.12" y="-417.45" font-family="Helvetica,sans-Serif" font-weight="bold" font-size="9.00">tabs</text>
</g>
<g id="clust9" class="cluster">
<title>cluster_src/pages/auth</title>
<path fill="#ffffff" stroke="black" stroke-width="2" d="M205.12,-465C205.12,-465 396.12,-465 396.12,-465 402.12,-465 408.12,-471 408.12,-477 408.12,-477 408.12,-539 408.12,-539 408.12,-545 402.12,-551 396.12,-551 396.12,-551 205.12,-551 205.12,-551 199.12,-551 193.12,-545 193.12,-539 193.12,-539 193.12,-477 193.12,-477 193.12,-471 199.12,-465 205.12,-465"/>
<text text-anchor="middle" x="300.62" y="-538.45" font-family="Helvetica,sans-Serif" font-weight="bold" font-size="9.00">auth</text>
</g>
<g id="clust10" class="cluster">
<title>cluster_src/pages/home</title>
<path fill="#ffffff" stroke="black" stroke-width="2" d="M204,-559C204,-559 556.12,-559 556.12,-559 562.12,-559 568.12,-565 568.12,-571 568.12,-571 568.12,-637 568.12,-637 568.12,-643 562.12,-649 556.12,-649 556.12,-649 204,-649 204,-649 198,-649 192,-643 192,-637 192,-637 192,-571 192,-571 192,-565 198,-559 204,-559"/>
<text text-anchor="middle" x="380.06" y="-636.45" font-family="Helvetica,sans-Serif" font-weight="bold" font-size="9.00">home</text>
</g>
<g id="clust11" class="cluster">
<title>cluster_src/pages/home/components</title>
<path fill="#ffffff" stroke="black" stroke-width="2" d="M336.88,-567C336.88,-567 548.12,-567 548.12,-567 554.12,-567 560.12,-573 560.12,-579 560.12,-579 560.12,-610 560.12,-610 560.12,-616 554.12,-622 548.12,-622 548.12,-622 336.88,-622 336.88,-622 330.88,-622 324.88,-616 324.88,-610 324.88,-610 324.88,-579 324.88,-579 324.88,-573 330.88,-567 336.88,-567"/>
<text text-anchor="middle" x="442.5" y="-609.45" font-family="Helvetica,sans-Serif" font-weight="bold" font-size="9.00">components</text>
</g>
<g id="clust12" class="cluster">
<title>cluster_src/utilities</title>
<path fill="#ffffff" stroke="black" stroke-width="2" d="M468.12,-79C468.12,-79 673.5,-79 673.5,-79 679.5,-79 685.5,-85 685.5,-91 685.5,-91 685.5,-246 685.5,-246 685.5,-252 679.5,-258 673.5,-258 673.5,-258 468.12,-258 468.12,-258 462.12,-258 456.12,-252 456.12,-246 456.12,-246 456.12,-91 456.12,-91 456.12,-85 462.12,-79 468.12,-79"/>
<text text-anchor="middle" x="570.81" y="-245.45" font-family="Helvetica,sans-Serif" font-weight="bold" font-size="9.00">utilities</text>
</g>
<!-- src/atoms/auth.ts -->
<g id="node1" class="node">
<title>src/atoms/auth.ts</title>
<g id="a_node1"><a xlink:href="src/atoms/auth.ts" xlink:title="auth.ts">
<path fill="#ddfeff" stroke="black" d="M529.46,-43.62C529.46,-43.62 488.29,-43.62 488.29,-43.62 485.08,-43.62 481.88,-40.42 481.88,-37.21 481.88,-37.21 481.88,-30.79 481.88,-30.79 481.88,-27.58 485.08,-24.38 488.29,-24.38 488.29,-24.38 529.46,-24.38 529.46,-24.38 532.67,-24.38 535.88,-27.58 535.88,-30.79 535.88,-30.79 535.88,-37.21 535.88,-37.21 535.88,-40.42 532.67,-43.62 529.46,-43.62"/>
<text text-anchor="start" x="495" y="-31.07" font-family="Helvetica,sans-Serif" font-size="9.00">auth.ts</text>
</a>
</g>
</g>
<!-- src/utilities/authApi.ts -->
<g id="node2" class="node">
<title>src/utilities/authApi.ts</title>
<g id="a_node2"><a xlink:href="src/utilities/authApi.ts" xlink:title="authApi.ts">
<path fill="#ddfeff" stroke="black" d="M531.08,-199.62C531.08,-199.62 486.67,-199.62 486.67,-199.62 483.46,-199.62 480.25,-196.42 480.25,-193.21 480.25,-193.21 480.25,-186.79 480.25,-186.79 480.25,-183.58 483.46,-180.38 486.67,-180.38 486.67,-180.38 531.08,-180.38 531.08,-180.38 534.29,-180.38 537.5,-183.58 537.5,-186.79 537.5,-186.79 537.5,-193.21 537.5,-193.21 537.5,-196.42 534.29,-199.62 531.08,-199.62"/>
<text text-anchor="start" x="488.25" y="-187.07" font-family="Helvetica,sans-Serif" font-size="9.00">authApi.ts</text>
</a>
</g>
</g>
<!-- src/atoms/auth.ts&#45;&gt;src/utilities/authApi.ts -->
<g id="edge1" class="edge">
<title>src/atoms/auth.ts&#45;&gt;src/utilities/authApi.ts</title>
<path fill="none" stroke="#000000" stroke-width="2" stroke-opacity="0.200000" d="M487.7,-43.98C473.84,-51.97 457.36,-64.71 452.12,-82 449.32,-91.25 449.32,-159.75 452.12,-169 454.82,-177.91 462.46,-183.17 471.29,-186.24"/>
<polygon fill="#000000" fill-opacity="0.200000" stroke="#000000" stroke-width="2" stroke-opacity="0.200000" points="470.74,-188.26 477.08,-187.78 471.82,-184.21 470.74,-188.26"/>
</g>
<!-- src/core/baseUrl.ts -->
<g id="node6" class="node">
<title>src/core/baseUrl.ts</title>
<g id="a_node6"><a xlink:href="src/core/baseUrl.ts" xlink:title="baseUrl.ts">
<path fill="#ddfeff" stroke="black" d="M659.83,-293.62C659.83,-293.62 616.17,-293.62 616.17,-293.62 612.96,-293.62 609.75,-290.42 609.75,-287.21 609.75,-287.21 609.75,-280.79 609.75,-280.79 609.75,-277.58 612.96,-274.38 616.17,-274.38 616.17,-274.38 659.83,-274.38 659.83,-274.38 663.04,-274.38 666.25,-277.58 666.25,-280.79 666.25,-280.79 666.25,-287.21 666.25,-287.21 666.25,-290.42 663.04,-293.62 659.83,-293.62"/>
<text text-anchor="start" x="617.75" y="-281.07" font-family="Helvetica,sans-Serif" font-size="9.00">baseUrl.ts</text>
</a>
</g>
</g>
<!-- src/utilities/authApi.ts&#45;&gt;src/core/baseUrl.ts -->
<g id="edge31" class="edge">
<title>src/utilities/authApi.ts&#45;&gt;src/core/baseUrl.ts</title>
<path fill="none" stroke="#000000" stroke-width="2" stroke-opacity="0.200000" d="M537.98,-189.39C551.37,-190.65 566.53,-194.6 576.12,-205 593.17,-223.48 568.89,-241 584.12,-261 588.57,-266.84 594.81,-271.22 601.45,-274.5"/>
<polygon fill="#000000" fill-opacity="0.200000" stroke="#000000" stroke-width="2" stroke-opacity="0.200000" points="600.21,-276.25 606.55,-276.67 601.86,-272.39 600.21,-276.25"/>
</g>
<!-- src/core/generated&#45;client.ts -->
<g id="node7" class="node">
<title>src/core/generated&#45;client.ts</title>
<g id="a_node7"><a xlink:href="src/core/generated-client.ts" xlink:title="generated&#45;client.ts">
<path fill="#ddfeff" stroke="black" d="M677.46,-355.62C677.46,-355.62 598.54,-355.62 598.54,-355.62 595.33,-355.62 592.12,-352.42 592.12,-349.21 592.12,-349.21 592.12,-342.79 592.12,-342.79 592.12,-339.58 595.33,-336.38 598.54,-336.38 598.54,-336.38 677.46,-336.38 677.46,-336.38 680.67,-336.38 683.88,-339.58 683.88,-342.79 683.88,-342.79 683.88,-349.21 683.88,-349.21 683.88,-352.42 680.67,-355.62 677.46,-355.62"/>
<text text-anchor="start" x="600.12" y="-343.07" font-family="Helvetica,sans-Serif" font-size="9.00">generated&#45;client.ts</text>
</a>
</g>
</g>
<!-- src/utilities/authApi.ts&#45;&gt;src/core/generated&#45;client.ts -->
<g id="edge32" class="edge">
<title>src/utilities/authApi.ts&#45;&gt;src/core/generated&#45;client.ts</title>
<path fill="none" stroke="#000000" stroke-width="2" stroke-opacity="0.200000" d="M537.99,-189.05C551.56,-190.19 566.87,-194.14 576.12,-205 594.32,-226.35 566.51,-309.16 584.12,-331 584.39,-331.33 584.67,-331.66 584.95,-331.98"/>
<polygon fill="#000000" fill-opacity="0.200000" stroke="#000000" stroke-width="2" stroke-opacity="0.200000" points="583.5,-333.5 589.44,-335.77 586.21,-330.3 583.5,-333.5"/>
</g>
<!-- src/utilities/customFetch.ts -->
<g id="node27" class="node">
<title>src/utilities/customFetch.ts</title>
<g id="a_node27"><a xlink:href="src/utilities/customFetch.ts" xlink:title="customFetch.ts">
<path fill="#ddfeff" stroke="black" d="M671.08,-183.62C671.08,-183.62 604.92,-183.62 604.92,-183.62 601.71,-183.62 598.5,-180.42 598.5,-177.21 598.5,-177.21 598.5,-170.79 598.5,-170.79 598.5,-167.58 601.71,-164.38 604.92,-164.38 604.92,-164.38 671.08,-164.38 671.08,-164.38 674.29,-164.38 677.5,-167.58 677.5,-170.79 677.5,-170.79 677.5,-177.21 677.5,-177.21 677.5,-180.42 674.29,-183.62 671.08,-183.62"/>
<text text-anchor="start" x="606.5" y="-171.07" font-family="Helvetica,sans-Serif" font-size="9.00">customFetch.ts</text>
</a>
</g>
</g>
<!-- src/utilities/authApi.ts&#45;&gt;src/utilities/customFetch.ts -->
<g id="edge33" class="edge">
<title>src/utilities/authApi.ts&#45;&gt;src/utilities/customFetch.ts</title>
<path fill="none" stroke="#000000" stroke-width="2" stroke-opacity="0.200000" d="M537.77,-186.49C552.84,-184.59 571.85,-182.2 589.19,-180.02"/>
<polygon fill="#000000" fill-opacity="0.200000" stroke="#000000" stroke-width="2" stroke-opacity="0.200000" points="589.38,-182.11 595.07,-179.28 588.86,-177.94 589.38,-182.11"/>
</g>
<!-- src/components/App.tsx -->
<g id="node3" class="node">
<title>src/components/App.tsx</title>
<g id="a_node3"><a xlink:href="src/components/App.tsx" xlink:title="App.tsx">
<path fill="#bbfeff" stroke="black" d="M145.08,-127.62C145.08,-127.62 103.92,-127.62 103.92,-127.62 100.71,-127.62 97.5,-124.42 97.5,-121.21 97.5,-121.21 97.5,-114.79 97.5,-114.79 97.5,-111.58 100.71,-108.38 103.92,-108.38 103.92,-108.38 145.08,-108.38 145.08,-108.38 148.29,-108.38 151.5,-111.58 151.5,-114.79 151.5,-114.79 151.5,-121.21 151.5,-121.21 151.5,-124.42 148.29,-127.62 145.08,-127.62"/>
<text text-anchor="start" x="109.12" y="-115.08" font-family="Helvetica,sans-Serif" font-size="9.00">App.tsx</text>
</a>
</g>
</g>
<!-- src/components/layout/HomeLayout.tsx -->
<g id="node4" class="node">
<title>src/components/layout/HomeLayout.tsx</title>
<g id="a_node4"><a xlink:href="src/components/layout/HomeLayout.tsx" xlink:title="HomeLayout.tsx">
<path fill="#bbfeff" stroke="black" d="M271.83,-127.62C271.83,-127.62 202.67,-127.62 202.67,-127.62 199.46,-127.62 196.25,-124.42 196.25,-121.21 196.25,-121.21 196.25,-114.79 196.25,-114.79 196.25,-111.58 199.46,-108.38 202.67,-108.38 202.67,-108.38 271.83,-108.38 271.83,-108.38 275.04,-108.38 278.25,-111.58 278.25,-114.79 278.25,-114.79 278.25,-121.21 278.25,-121.21 278.25,-124.42 275.04,-127.62 271.83,-127.62"/>
<text text-anchor="start" x="204.25" y="-115.08" font-family="Helvetica,sans-Serif" font-size="9.00">HomeLayout.tsx</text>
</a>
</g>
</g>
<!-- src/components/App.tsx&#45;&gt;src/components/layout/HomeLayout.tsx -->
<g id="edge2" class="edge">
<title>src/components/App.tsx&#45;&gt;src/components/layout/HomeLayout.tsx</title>
<path fill="none" stroke="#000000" stroke-width="2" stroke-opacity="0.200000" d="M151.75,-118C162.35,-118 174.94,-118 187.13,-118"/>
<polygon fill="#000000" fill-opacity="0.200000" stroke="#000000" stroke-width="2" stroke-opacity="0.200000" points="186.87,-120.1 192.87,-118 186.87,-115.9 186.87,-120.1"/>
</g>
<!-- src/components/layout/AppHeader.tsx -->
<g id="node5" class="node">
<title>src/components/layout/AppHeader.tsx</title>
<g id="a_node5"><a xlink:href="src/components/layout/AppHeader.tsx" xlink:title="AppHeader.tsx">
<path fill="#bbfeff" stroke="black" d="M404.71,-127.62C404.71,-127.62 341.54,-127.62 341.54,-127.62 338.33,-127.62 335.12,-124.42 335.12,-121.21 335.12,-121.21 335.12,-114.79 335.12,-114.79 335.12,-111.58 338.33,-108.38 341.54,-108.38 341.54,-108.38 404.71,-108.38 404.71,-108.38 407.92,-108.38 411.12,-111.58 411.12,-114.79 411.12,-114.79 411.12,-121.21 411.12,-121.21 411.12,-124.42 407.92,-127.62 404.71,-127.62"/>
<text text-anchor="start" x="343.12" y="-115.08" font-family="Helvetica,sans-Serif" font-size="9.00">AppHeader.tsx</text>
</a>
</g>
</g>
<!-- src/components/layout/HomeLayout.tsx&#45;&gt;src/components/layout/AppHeader.tsx -->
<g id="edge4" class="edge">
<title>src/components/layout/HomeLayout.tsx&#45;&gt;src/components/layout/AppHeader.tsx</title>
<path fill="none" stroke="#000000" stroke-width="2" stroke-opacity="0.200000" d="M278.42,-118C293.35,-118 310.42,-118 325.86,-118"/>
<polygon fill="#000000" fill-opacity="0.200000" stroke="#000000" stroke-width="2" stroke-opacity="0.200000" points="325.71,-120.1 331.71,-118 325.71,-115.9 325.71,-120.1"/>
</g>
<!-- src/components/layout/AppHeader.tsx&#45;&gt;src/atoms/auth.ts -->
<g id="edge3" class="edge">
<title>src/components/layout/AppHeader.tsx&#45;&gt;src/atoms/auth.ts</title>
<path fill="none" stroke="#000000" stroke-width="2" stroke-opacity="0.200000" d="M389.99,-108.03C413.42,-93.32 457.41,-65.69 484.53,-48.66"/>
<polygon fill="#000000" fill-opacity="0.200000" stroke="#000000" stroke-width="2" stroke-opacity="0.200000" points="485.5,-50.53 489.46,-45.56 483.27,-46.98 485.5,-50.53"/>
</g>
<!-- src/core/problemdetails.ts -->
<g id="node8" class="node">
<title>src/core/problemdetails.ts</title>
<g id="a_node8"><a xlink:href="src/core/problemdetails.ts" xlink:title="problemdetails.ts">
<path fill="#ddfeff" stroke="black" d="M674.83,-324.62C674.83,-324.62 601.17,-324.62 601.17,-324.62 597.96,-324.62 594.75,-321.42 594.75,-318.21 594.75,-318.21 594.75,-311.79 594.75,-311.79 594.75,-308.58 597.96,-305.38 601.17,-305.38 601.17,-305.38 674.83,-305.38 674.83,-305.38 678.04,-305.38 681.25,-308.58 681.25,-311.79 681.25,-311.79 681.25,-318.21 681.25,-318.21 681.25,-321.42 678.04,-324.62 674.83,-324.62"/>
<text text-anchor="start" x="602.75" y="-312.07" font-family="Helvetica,sans-Serif" font-size="9.00">problemdetails.ts</text>
</a>
</g>
</g>
<!-- src/index.css -->
<g id="node9" class="node">
<title>src/index.css</title>
<g id="a_node9"><a xlink:href="src/index.css" xlink:title="index.css">
<path fill="#ffffcc" stroke="black" d="M145.08,-392.62C145.08,-392.62 103.92,-392.62 103.92,-392.62 100.71,-392.62 97.5,-389.42 97.5,-386.21 97.5,-386.21 97.5,-379.79 97.5,-379.79 97.5,-376.58 100.71,-373.38 103.92,-373.38 103.92,-373.38 145.08,-373.38 145.08,-373.38 148.29,-373.38 151.5,-376.58 151.5,-379.79 151.5,-379.79 151.5,-386.21 151.5,-386.21 151.5,-389.42 148.29,-392.62 145.08,-392.62"/>
<text text-anchor="start" x="105.75" y="-380.07" font-family="Helvetica,sans-Serif" font-size="9.00">index.css</text>
</a>
</g>
</g>
<!-- src/main.tsx -->
<g id="node10" class="node">
<title>src/main.tsx</title>
<g id="a_node10"><a xlink:href="src/main.tsx" xlink:title="main.tsx">
<path fill="#bbfeff" stroke="black" d="M69.33,-407.62C69.33,-407.62 28.17,-407.62 28.17,-407.62 24.96,-407.62 21.75,-404.42 21.75,-401.21 21.75,-401.21 21.75,-394.79 21.75,-394.79 21.75,-391.58 24.96,-388.38 28.17,-388.38 28.17,-388.38 69.33,-388.38 69.33,-388.38 72.54,-388.38 75.75,-391.58 75.75,-394.79 75.75,-394.79 75.75,-401.21 75.75,-401.21 75.75,-404.42 72.54,-407.62 69.33,-407.62"/>
<text text-anchor="start" x="31.5" y="-395.07" font-family="Helvetica,sans-Serif" font-size="9.00">main.tsx</text>
</a>
</g>
</g>
<!-- src/main.tsx&#45;&gt;src/index.css -->
<g id="edge5" class="edge">
<title>src/main.tsx&#45;&gt;src/index.css</title>
<path fill="none" stroke="#000000" stroke-width="2" stroke-opacity="0.200000" d="M75.96,-392.67C80.09,-391.83 84.41,-390.95 88.7,-390.08"/>
<polygon fill="#000000" fill-opacity="0.200000" stroke="#000000" stroke-width="2" stroke-opacity="0.200000" points="88.95,-392.17 94.41,-388.92 88.11,-388.05 88.95,-392.17"/>
</g>
<!-- src/router.tsx -->
<g id="node11" class="node">
<title>src/router.tsx</title>
<g id="a_node11"><a xlink:href="src/router.tsx" xlink:title="router.tsx">
<path fill="#bbfeff" stroke="black" d="M145.96,-423.62C145.96,-423.62 103.04,-423.62 103.04,-423.62 99.83,-423.62 96.62,-420.42 96.62,-417.21 96.62,-417.21 96.62,-410.79 96.62,-410.79 96.62,-407.58 99.83,-404.38 103.04,-404.38 103.04,-404.38 145.96,-404.38 145.96,-404.38 149.17,-404.38 152.38,-407.58 152.38,-410.79 152.38,-410.79 152.38,-417.21 152.38,-417.21 152.38,-420.42 149.17,-423.62 145.96,-423.62"/>
<text text-anchor="start" x="104.62" y="-411.07" font-family="Helvetica,sans-Serif" font-size="9.00">router.tsx</text>
</a>
</g>
</g>
<!-- src/main.tsx&#45;&gt;src/router.tsx -->
<g id="edge6" class="edge">
<title>src/main.tsx&#45;&gt;src/router.tsx</title>
<path fill="none" stroke="#000000" stroke-width="2" stroke-opacity="0.200000" d="M75.96,-403.69C79.74,-404.51 83.69,-405.36 87.62,-406.22"/>
<polygon fill="#000000" fill-opacity="0.200000" stroke="#000000" stroke-width="2" stroke-opacity="0.200000" points="86.86,-408.2 93.17,-407.42 87.75,-404.1 86.86,-408.2"/>
</g>
<!-- src/router.tsx&#45;&gt;src/components/layout/HomeLayout.tsx -->
<g id="edge27" class="edge">
<title>src/router.tsx&#45;&gt;src/components/layout/HomeLayout.tsx</title>
<path fill="none" stroke="#000000" stroke-width="2" stroke-opacity="0.200000" d="M147.69,-404.27C149.51,-402.74 151.12,-400.99 152.38,-399 167.56,-374.88 153.01,-298.53 160.38,-271 174.46,-218.34 207.45,-162.41 224.92,-135.06"/>
<polygon fill="#000000" fill-opacity="0.200000" stroke="#000000" stroke-width="2" stroke-opacity="0.200000" points="226.46,-136.55 227.97,-130.37 222.94,-134.26 226.46,-136.55"/>
</g>
<!-- src/pages/admin/AdminDashboardPage.tsx -->
<g id="node12" class="node">
<title>src/pages/admin/AdminDashboardPage.tsx</title>
<g id="a_node12"><a xlink:href="src/pages/admin/AdminDashboardPage.tsx" xlink:title="AdminDashboardPage.tsx">
<path fill="#bbfeff" stroke="black" d="M291.71,-355.62C291.71,-355.62 182.79,-355.62 182.79,-355.62 179.58,-355.62 176.38,-352.42 176.38,-349.21 176.38,-349.21 176.38,-342.79 176.38,-342.79 176.38,-339.58 179.58,-336.38 182.79,-336.38 182.79,-336.38 291.71,-336.38 291.71,-336.38 294.92,-336.38 298.12,-339.58 298.12,-342.79 298.12,-342.79 298.12,-349.21 298.12,-349.21 298.12,-352.42 294.92,-355.62 291.71,-355.62"/>
<text text-anchor="start" x="184.38" y="-343.07" font-family="Helvetica,sans-Serif" font-size="9.00">AdminDashboardPage.tsx</text>
</a>
</g>
</g>
<!-- src/router.tsx&#45;&gt;src/pages/admin/AdminDashboardPage.tsx -->
<g id="edge28" class="edge">
<title>src/router.tsx&#45;&gt;src/pages/admin/AdminDashboardPage.tsx</title>
<path fill="none" stroke="#000000" stroke-width="2" stroke-opacity="0.200000" d="M143.79,-403.97C146.68,-402.33 149.62,-400.64 152.38,-399 173.43,-386.48 196.98,-371.52 213.75,-360.68"/>
<polygon fill="#000000" fill-opacity="0.200000" stroke="#000000" stroke-width="2" stroke-opacity="0.200000" points="214.51,-362.69 218.41,-357.67 212.23,-359.17 214.51,-362.69"/>
</g>
<!-- src/pages/auth/LoginPage.tsx -->
<g id="node22" class="node">
<title>src/pages/auth/LoginPage.tsx</title>
<g id="a_node22"><a xlink:href="src/pages/auth/LoginPage.tsx" xlink:title="LoginPage.tsx">
<path fill="#bbfeff" stroke="black" d="M266.96,-492.62C266.96,-492.62 207.54,-492.62 207.54,-492.62 204.33,-492.62 201.12,-489.42 201.12,-486.21 201.12,-486.21 201.12,-479.79 201.12,-479.79 201.12,-476.58 204.33,-473.38 207.54,-473.38 207.54,-473.38 266.96,-473.38 266.96,-473.38 270.17,-473.38 273.38,-476.58 273.38,-479.79 273.38,-479.79 273.38,-486.21 273.38,-486.21 273.38,-489.42 270.17,-492.62 266.96,-492.62"/>
<text text-anchor="start" x="209.12" y="-480.07" font-family="Helvetica,sans-Serif" font-size="9.00">LoginPage.tsx</text>
</a>
</g>
</g>
<!-- src/router.tsx&#45;&gt;src/pages/auth/LoginPage.tsx -->
<g id="edge29" class="edge">
<title>src/router.tsx&#45;&gt;src/pages/auth/LoginPage.tsx</title>
<path fill="none" stroke="#000000" stroke-width="2" stroke-opacity="0.200000" d="M130.55,-423.91C136.37,-434.37 146.89,-450.61 160.38,-460 169.92,-466.64 181.42,-471.41 192.56,-474.81"/>
<polygon fill="#000000" fill-opacity="0.200000" stroke="#000000" stroke-width="2" stroke-opacity="0.200000" points="191.7,-476.75 198.05,-476.34 192.83,-472.7 191.7,-476.75"/>
</g>
<!-- src/pages/home/HomePage.tsx -->
<g id="node24" class="node">
<title>src/pages/home/HomePage.tsx</title>
<g id="a_node24"><a xlink:href="src/pages/home/HomePage.tsx" xlink:title="HomePage.tsx">
<path fill="#bbfeff" stroke="black" d="M268.08,-590.62C268.08,-590.62 206.42,-590.62 206.42,-590.62 203.21,-590.62 200,-587.42 200,-584.21 200,-584.21 200,-577.79 200,-577.79 200,-574.58 203.21,-571.38 206.42,-571.38 206.42,-571.38 268.08,-571.38 268.08,-571.38 271.29,-571.38 274.5,-574.58 274.5,-577.79 274.5,-577.79 274.5,-584.21 274.5,-584.21 274.5,-587.42 271.29,-590.62 268.08,-590.62"/>
<text text-anchor="start" x="208" y="-578.08" font-family="Helvetica,sans-Serif" font-size="9.00">HomePage.tsx</text>
</a>
</g>
</g>
<!-- src/router.tsx&#45;&gt;src/pages/home/HomePage.tsx -->
<g id="edge30" class="edge">
<title>src/router.tsx&#45;&gt;src/pages/home/HomePage.tsx</title>
<path fill="none" stroke="#000000" stroke-width="2" stroke-opacity="0.200000" d="M124.99,-423.93C124.27,-449.07 125.88,-515.96 160.38,-554 168.54,-563 179.9,-569 191.35,-573"/>
<polygon fill="#000000" fill-opacity="0.200000" stroke="#000000" stroke-width="2" stroke-opacity="0.200000" points="190.42,-574.91 196.77,-574.68 191.66,-570.9 190.42,-574.91"/>
</g>
<!-- src/pages/admin/AdminDashboardPage.tsx&#45;&gt;src/atoms/auth.ts -->
<g id="edge7" class="edge">
<title>src/pages/admin/AdminDashboardPage.tsx&#45;&gt;src/atoms/auth.ts</title>
<path fill="none" stroke="#000000" stroke-width="2" stroke-opacity="0.200000" d="M247.7,-336.23C260.62,-322.98 284.65,-298.7 306.12,-279 367.23,-222.95 409.75,-231.5 448.12,-158 465.07,-125.54 438.79,-108.25 456.12,-76 462.02,-65.04 472.1,-55.87 481.8,-48.93"/>
<polygon fill="#000000" fill-opacity="0.200000" stroke="#000000" stroke-width="2" stroke-opacity="0.200000" points="482.74,-50.82 486.56,-45.74 480.41,-47.33 482.74,-50.82"/>
</g>
<!-- src/pages/admin/tabs/BoardsStatsTab.tsx -->
<g id="node13" class="node">
<title>src/pages/admin/tabs/BoardsStatsTab.tsx</title>
<g id="a_node13"><a xlink:href="src/pages/admin/tabs/BoardsStatsTab.tsx" xlink:title="BoardsStatsTab.tsx">
<path fill="#bbfeff" stroke="black" d="M414.08,-309.62C414.08,-309.62 332.17,-309.62 332.17,-309.62 328.96,-309.62 325.75,-306.42 325.75,-303.21 325.75,-303.21 325.75,-296.79 325.75,-296.79 325.75,-293.58 328.96,-290.38 332.17,-290.38 332.17,-290.38 414.08,-290.38 414.08,-290.38 417.29,-290.38 420.5,-293.58 420.5,-296.79 420.5,-296.79 420.5,-303.21 420.5,-303.21 420.5,-306.42 417.29,-309.62 414.08,-309.62"/>
<text text-anchor="start" x="333.75" y="-297.07" font-family="Helvetica,sans-Serif" font-size="9.00">BoardsStatsTab.tsx</text>
</a>
</g>
</g>
<!-- src/pages/admin/AdminDashboardPage.tsx&#45;&gt;src/pages/admin/tabs/BoardsStatsTab.tsx -->
<g id="edge8" class="edge">
<title>src/pages/admin/AdminDashboardPage.tsx&#45;&gt;src/pages/admin/tabs/BoardsStatsTab.tsx</title>
<path fill="none" stroke="#000000" stroke-width="2" stroke-opacity="0.200000" d="M257.42,-335.96C270.79,-329.29 289.19,-320.72 306.12,-315 309.57,-313.84 313.14,-312.73 316.77,-311.7"/>
<polygon fill="#000000" fill-opacity="0.200000" stroke="#000000" stroke-width="2" stroke-opacity="0.200000" points="317.11,-313.78 322.36,-310.18 316.02,-309.72 317.11,-313.78"/>
</g>
<!-- src/pages/admin/tabs/PaymentsTab.tsx -->
<g id="node14" class="node">
<title>src/pages/admin/tabs/PaymentsTab.tsx</title>
<g id="a_node14"><a xlink:href="src/pages/admin/tabs/PaymentsTab.tsx" xlink:title="PaymentsTab.tsx">
<path fill="#bbfeff" stroke="black" d="M409.21,-402.62C409.21,-402.62 337.04,-402.62 337.04,-402.62 333.83,-402.62 330.62,-399.42 330.62,-396.21 330.62,-396.21 330.62,-389.79 330.62,-389.79 330.62,-386.58 333.83,-383.38 337.04,-383.38 337.04,-383.38 409.21,-383.38 409.21,-383.38 412.42,-383.38 415.62,-386.58 415.62,-389.79 415.62,-389.79 415.62,-396.21 415.62,-396.21 415.62,-399.42 412.42,-402.62 409.21,-402.62"/>
<text text-anchor="start" x="338.62" y="-390.07" font-family="Helvetica,sans-Serif" font-size="9.00">PaymentsTab.tsx</text>
</a>
</g>
</g>
<!-- src/pages/admin/AdminDashboardPage.tsx&#45;&gt;src/pages/admin/tabs/PaymentsTab.tsx -->
<g id="edge9" class="edge">
<title>src/pages/admin/AdminDashboardPage.tsx&#45;&gt;src/pages/admin/tabs/PaymentsTab.tsx</title>
<path fill="none" stroke="#000000" stroke-width="2" stroke-opacity="0.200000" d="M256.81,-356.09C270.2,-363.04 288.88,-372.06 306.12,-378 311.16,-379.73 316.47,-381.32 321.81,-382.77"/>
<polygon fill="#000000" fill-opacity="0.200000" stroke="#000000" stroke-width="2" stroke-opacity="0.200000" points="320.93,-384.71 327.26,-384.16 321.97,-380.64 320.93,-384.71"/>
</g>
<!-- src/pages/admin/tabs/PlayersTab.tsx -->
<g id="node15" class="node">
<title>src/pages/admin/tabs/PlayersTab.tsx</title>
<g id="a_node15"><a xlink:href="src/pages/admin/tabs/PlayersTab.tsx" xlink:title="PlayersTab.tsx">
<path fill="#bbfeff" stroke="black" d="M403.96,-340.62C403.96,-340.62 342.29,-340.62 342.29,-340.62 339.08,-340.62 335.88,-337.42 335.88,-334.21 335.88,-334.21 335.88,-327.79 335.88,-327.79 335.88,-324.58 339.08,-321.38 342.29,-321.38 342.29,-321.38 403.96,-321.38 403.96,-321.38 407.17,-321.38 410.38,-324.58 410.38,-327.79 410.38,-327.79 410.38,-334.21 410.38,-334.21 410.38,-337.42 407.17,-340.62 403.96,-340.62"/>
<text text-anchor="start" x="343.88" y="-328.07" font-family="Helvetica,sans-Serif" font-size="9.00">PlayersTab.tsx</text>
</a>
</g>
</g>
<!-- src/pages/admin/AdminDashboardPage.tsx&#45;&gt;src/pages/admin/tabs/PlayersTab.tsx -->
<g id="edge10" class="edge">
<title>src/pages/admin/AdminDashboardPage.tsx&#45;&gt;src/pages/admin/tabs/PlayersTab.tsx</title>
<path fill="none" stroke="#000000" stroke-width="2" stroke-opacity="0.200000" d="M298.53,-339.25C308,-338.18 317.66,-337.1 326.72,-336.09"/>
<polygon fill="#000000" fill-opacity="0.200000" stroke="#000000" stroke-width="2" stroke-opacity="0.200000" points="326.82,-338.19 332.55,-335.43 326.35,-334.02 326.82,-338.19"/>
</g>
<!-- src/pages/admin/tabs/WinningNumbersTab.tsx -->
<g id="node16" class="node">
<title>src/pages/admin/tabs/WinningNumbersTab.tsx</title>
<g id="a_node16"><a xlink:href="src/pages/admin/tabs/WinningNumbersTab.tsx" xlink:title="WinningNumbersTab.tsx">
<path fill="#bbfeff" stroke="black" d="M425.71,-371.62C425.71,-371.62 320.54,-371.62 320.54,-371.62 317.33,-371.62 314.12,-368.42 314.12,-365.21 314.12,-365.21 314.12,-358.79 314.12,-358.79 314.12,-355.58 317.33,-352.38 320.54,-352.38 320.54,-352.38 425.71,-352.38 425.71,-352.38 428.92,-352.38 432.12,-355.58 432.12,-358.79 432.12,-358.79 432.12,-365.21 432.12,-365.21 432.12,-368.42 428.92,-371.62 425.71,-371.62"/>
<text text-anchor="start" x="322.12" y="-359.07" font-family="Helvetica,sans-Serif" font-size="9.00">WinningNumbersTab.tsx</text>
</a>
</g>
</g>
<!-- src/pages/admin/AdminDashboardPage.tsx&#45;&gt;src/pages/admin/tabs/WinningNumbersTab.tsx -->
<g id="edge11" class="edge">
<title>src/pages/admin/AdminDashboardPage.tsx&#45;&gt;src/pages/admin/tabs/WinningNumbersTab.tsx</title>
<path fill="none" stroke="#000000" stroke-width="2" stroke-opacity="0.200000" d="M298.53,-353.2C300.78,-353.47 303.03,-353.74 305.29,-354.01"/>
<polygon fill="#000000" fill-opacity="0.200000" stroke="#000000" stroke-width="2" stroke-opacity="0.200000" points="304.76,-356.06 310.97,-354.69 305.26,-351.89 304.76,-356.06"/>
</g>
<!-- src/pages/admin/tabs/BoardsStatsTab.tsx&#45;&gt;src/core/generated&#45;client.ts -->
<g id="edge12" class="edge">
<title>src/pages/admin/tabs/BoardsStatsTab.tsx&#45;&gt;src/core/generated&#45;client.ts</title>
<path fill="none" stroke="#000000" stroke-opacity="0.200000" d="M420.77,-306.96C461.79,-313.24 523.05,-323 576.12,-333 578.99,-333.54 581.93,-334.11 584.9,-334.7"/>
<polygon fill="none" stroke="#000000" stroke-opacity="0.200000" points="584.06,-336.67 590.36,-335.8 584.89,-332.56 584.06,-336.67"/>
</g>
<!-- src/utilities/boardsApi.ts -->
<g id="node17" class="node">
<title>src/utilities/boardsApi.ts</title>
<g id="a_node17"><a xlink:href="src/utilities/boardsApi.ts" xlink:title="boardsApi.ts">
<path fill="#ddfeff" stroke="black" d="M536.33,-106.62C536.33,-106.62 481.42,-106.62 481.42,-106.62 478.21,-106.62 475,-103.42 475,-100.21 475,-100.21 475,-93.79 475,-93.79 475,-90.58 478.21,-87.38 481.42,-87.38 481.42,-87.38 536.33,-87.38 536.33,-87.38 539.54,-87.38 542.75,-90.58 542.75,-93.79 542.75,-93.79 542.75,-100.21 542.75,-100.21 542.75,-103.42 539.54,-106.62 536.33,-106.62"/>
<text text-anchor="start" x="483" y="-94.08" font-family="Helvetica,sans-Serif" font-size="9.00">boardsApi.ts</text>
</a>
</g>
</g>
<!-- src/pages/admin/tabs/BoardsStatsTab.tsx&#45;&gt;src/utilities/boardsApi.ts -->
<g id="edge13" class="edge">
<title>src/pages/admin/tabs/BoardsStatsTab.tsx&#45;&gt;src/utilities/boardsApi.ts</title>
<path fill="none" stroke="#000000" stroke-width="2" stroke-opacity="0.200000" d="M384.21,-290.11C400.87,-273.06 433.71,-236.29 448.12,-198 454.89,-180.04 443.9,-126.79 456.12,-112 458.92,-108.62 462.43,-105.97 466.29,-103.91"/>
<polygon fill="#000000" fill-opacity="0.200000" stroke="#000000" stroke-width="2" stroke-opacity="0.200000" points="467.1,-105.84 471.83,-101.59 465.48,-101.97 467.1,-105.84"/>
</g>
<!-- src/utilities/gamesApi.ts -->
<g id="node18" class="node">
<title>src/utilities/gamesApi.ts</title>
<g id="a_node18"><a xlink:href="src/utilities/gamesApi.ts" xlink:title="gamesApi.ts">
<path fill="#ddfeff" stroke="black" d="M535.58,-168.62C535.58,-168.62 482.17,-168.62 482.17,-168.62 478.96,-168.62 475.75,-165.42 475.75,-162.21 475.75,-162.21 475.75,-155.79 475.75,-155.79 475.75,-152.58 478.96,-149.38 482.17,-149.38 482.17,-149.38 535.58,-149.38 535.58,-149.38 538.79,-149.38 542,-152.58 542,-155.79 542,-155.79 542,-162.21 542,-162.21 542,-165.42 538.79,-168.62 535.58,-168.62"/>
<text text-anchor="start" x="483.75" y="-156.07" font-family="Helvetica,sans-Serif" font-size="9.00">gamesApi.ts</text>
</a>
</g>
</g>
<!-- src/pages/admin/tabs/BoardsStatsTab.tsx&#45;&gt;src/utilities/gamesApi.ts -->
<g id="edge14" class="edge">
<title>src/pages/admin/tabs/BoardsStatsTab.tsx&#45;&gt;src/utilities/gamesApi.ts</title>
<path fill="none" stroke="#000000" stroke-width="2" stroke-opacity="0.200000" d="M383.04,-289.98C398.23,-272.44 429.33,-234.58 448.12,-198 453.26,-188 448.02,-181.79 456.12,-174 459.37,-170.88 463.23,-168.4 467.35,-166.44"/>
<polygon fill="#000000" fill-opacity="0.200000" stroke="#000000" stroke-width="2" stroke-opacity="0.200000" points="467.86,-168.49 472.69,-164.35 466.34,-164.58 467.86,-168.49"/>
</g>
<!-- src/utilities/playersApi.ts -->
<g id="node19" class="node">
<title>src/utilities/playersApi.ts</title>
<g id="a_node19"><a xlink:href="src/utilities/playersApi.ts" xlink:title="playersApi.ts">
<path fill="#ddfeff" stroke="black" d="M536.71,-137.62C536.71,-137.62 481.04,-137.62 481.04,-137.62 477.83,-137.62 474.62,-134.42 474.62,-131.21 474.62,-131.21 474.62,-124.79 474.62,-124.79 474.62,-121.58 477.83,-118.38 481.04,-118.38 481.04,-118.38 536.71,-118.38 536.71,-118.38 539.92,-118.38 543.12,-121.58 543.12,-124.79 543.12,-124.79 543.12,-131.21 543.12,-131.21 543.12,-134.42 539.92,-137.62 536.71,-137.62"/>
<text text-anchor="start" x="482.62" y="-125.08" font-family="Helvetica,sans-Serif" font-size="9.00">playersApi.ts</text>
</a>
</g>
</g>
<!-- src/pages/admin/tabs/BoardsStatsTab.tsx&#45;&gt;src/utilities/playersApi.ts -->
<g id="edge15" class="edge">
<title>src/pages/admin/tabs/BoardsStatsTab.tsx&#45;&gt;src/utilities/playersApi.ts</title>
<path fill="none" stroke="#000000" stroke-width="2" stroke-opacity="0.200000" d="M384,-290.02C400.34,-272.86 432.72,-235.9 448.12,-198 457.43,-175.12 439.9,-161.63 456.12,-143 458.93,-139.78 462.39,-137.22 466.17,-135.21"/>
<polygon fill="#000000" fill-opacity="0.200000" stroke="#000000" stroke-width="2" stroke-opacity="0.200000" points="466.79,-137.23 471.5,-132.96 465.16,-133.36 466.79,-137.23"/>
</g>
<!-- src/pages/admin/tabs/PaymentsTab.tsx&#45;&gt;src/core/generated&#45;client.ts -->
<g id="edge16" class="edge">
<title>src/pages/admin/tabs/PaymentsTab.tsx&#45;&gt;src/core/generated&#45;client.ts</title>
<path fill="none" stroke="#000000" stroke-opacity="0.200000" d="M415.91,-385.58C456.77,-378.32 520.73,-366.94 576.12,-357 578.98,-356.49 581.91,-355.96 584.87,-355.43"/>
<polygon fill="none" stroke="#000000" stroke-opacity="0.200000" points="584.77,-357.58 590.3,-354.45 584.02,-353.45 584.77,-357.58"/>
</g>
<!-- src/utilities/transactionsApi.ts -->
<g id="node20" class="node">
<title>src/utilities/transactionsApi.ts</title>
<g id="a_node20"><a xlink:href="src/utilities/transactionsApi.ts" xlink:title="transactionsApi.ts">
<path fill="#ddfeff" stroke="black" d="M547.21,-230.62C547.21,-230.62 470.54,-230.62 470.54,-230.62 467.33,-230.62 464.12,-227.42 464.12,-224.21 464.12,-224.21 464.12,-217.79 464.12,-217.79 464.12,-214.58 467.33,-211.38 470.54,-211.38 470.54,-211.38 547.21,-211.38 547.21,-211.38 550.42,-211.38 553.62,-214.58 553.62,-217.79 553.62,-217.79 553.62,-224.21 553.62,-224.21 553.62,-227.42 550.42,-230.62 547.21,-230.62"/>
<text text-anchor="start" x="472.12" y="-218.07" font-family="Helvetica,sans-Serif" font-size="9.00">transactionsApi.ts</text>
</a>
</g>
</g>
<!-- src/pages/admin/tabs/PaymentsTab.tsx&#45;&gt;src/utilities/transactionsApi.ts -->
<g id="edge17" class="edge">
<title>src/pages/admin/tabs/PaymentsTab.tsx&#45;&gt;src/utilities/transactionsApi.ts</title>
<path fill="none" stroke="#000000" stroke-width="2" stroke-opacity="0.200000" d="M415.77,-391.89C427.31,-389.75 439.13,-385.63 448.12,-378 490.43,-342.11 502.85,-272.87 506.45,-239.66"/>
<polygon fill="#000000" fill-opacity="0.200000" stroke="#000000" stroke-width="2" stroke-opacity="0.200000" points="508.51,-240.13 506.99,-233.96 504.33,-239.73 508.51,-240.13"/>
</g>
<!-- src/pages/admin/tabs/PlayersTab.tsx&#45;&gt;src/core/generated&#45;client.ts -->
<g id="edge18" class="edge">
<title>src/pages/admin/tabs/PlayersTab.tsx&#45;&gt;src/core/generated&#45;client.ts</title>
<path fill="none" stroke="#000000" stroke-opacity="0.200000" d="M410.68,-333.09C455.86,-335.66 533.06,-340.07 584.56,-343.01"/>
<polygon fill="none" stroke="#000000" stroke-opacity="0.200000" points="584.34,-345.1 590.45,-343.34 584.58,-340.91 584.34,-345.1"/>
</g>
<!-- src/pages/admin/tabs/PlayersTab.tsx&#45;&gt;src/utilities/playersApi.ts -->
<g id="edge19" class="edge">
<title>src/pages/admin/tabs/PlayersTab.tsx&#45;&gt;src/utilities/playersApi.ts</title>
<path fill="none" stroke="#000000" stroke-width="2" stroke-opacity="0.200000" d="M410.87,-332.49C424.57,-331.02 439,-326.65 448.12,-316 460.65,-301.39 444.21,-158.11 456.12,-143 458.81,-139.6 462.21,-136.94 465.99,-134.86"/>
<polygon fill="#000000" fill-opacity="0.200000" stroke="#000000" stroke-width="2" stroke-opacity="0.200000" points="466.69,-136.84 471.38,-132.55 465.04,-132.98 466.69,-136.84"/>
</g>
<!-- src/pages/admin/tabs/PlayersTab.tsx&#45;&gt;src/utilities/transactionsApi.ts -->
<g id="edge20" class="edge">
<title>src/pages/admin/tabs/PlayersTab.tsx&#45;&gt;src/utilities/transactionsApi.ts</title>
<path fill="none" stroke="#000000" stroke-width="2" stroke-opacity="0.200000" d="M410.68,-329.44C423.42,-327.45 437.23,-323.53 448.12,-316 475.47,-297.1 492.91,-261.19 501.5,-239.34"/>
<polygon fill="#000000" fill-opacity="0.200000" stroke="#000000" stroke-width="2" stroke-opacity="0.200000" points="503.45,-240.12 503.58,-233.77 499.51,-238.65 503.45,-240.12"/>
</g>
<!-- src/pages/admin/tabs/WinningNumbersTab.tsx&#45;&gt;src/core/generated&#45;client.ts -->
<g id="edge21" class="edge">
<title>src/pages/admin/tabs/WinningNumbersTab.tsx&#45;&gt;src/core/generated&#45;client.ts</title>
<path fill="none" stroke="#000000" stroke-opacity="0.200000" d="M432.47,-358.45C477.94,-355.68 540.52,-351.87 584.45,-349.2"/>
<polygon fill="none" stroke="#000000" stroke-opacity="0.200000" points="584.5,-351.3 590.36,-348.84 584.25,-347.11 584.5,-351.3"/>
</g>
<!-- src/pages/admin/tabs/WinningNumbersTab.tsx&#45;&gt;src/utilities/gamesApi.ts -->
<g id="edge22" class="edge">
<title>src/pages/admin/tabs/WinningNumbersTab.tsx&#45;&gt;src/utilities/gamesApi.ts</title>
<path fill="none" stroke="#000000" stroke-width="2" stroke-opacity="0.200000" d="M432.47,-358.16C438.44,-355.58 443.86,-351.98 448.12,-347 460.65,-332.39 444.21,-189.11 456.12,-174 459.13,-170.19 463.04,-167.31 467.37,-165.13"/>
<polygon fill="#000000" fill-opacity="0.200000" stroke="#000000" stroke-width="2" stroke-opacity="0.200000" points="467.87,-167.19 472.68,-163.04 466.33,-163.28 467.87,-167.19"/>
</g>
<!-- src/utilities/boardsApi.ts&#45;&gt;src/core/baseUrl.ts -->
<g id="edge34" class="edge">
<title>src/utilities/boardsApi.ts&#45;&gt;src/core/baseUrl.ts</title>
<path fill="none" stroke="#000000" stroke-width="2" stroke-opacity="0.200000" d="M543.15,-96.57C555.32,-98.23 568.06,-102.45 576.12,-112 597.51,-137.34 565.21,-233.77 584.12,-261 588.39,-267.15 594.68,-271.66 601.44,-274.98"/>
<polygon fill="#000000" fill-opacity="0.200000" stroke="#000000" stroke-width="2" stroke-opacity="0.200000" points="600.36,-276.8 606.7,-277.18 601.98,-272.93 600.36,-276.8"/>
</g>
<!-- src/utilities/boardsApi.ts&#45;&gt;src/core/generated&#45;client.ts -->
<g id="edge35" class="edge">
<title>src/utilities/boardsApi.ts&#45;&gt;src/core/generated&#45;client.ts</title>
<path fill="none" stroke="#000000" stroke-width="2" stroke-opacity="0.200000" d="M543.24,-96.5C555.42,-98.15 568.15,-102.38 576.12,-112 591.67,-130.74 569.09,-311.85 584.12,-331 584.39,-331.34 584.66,-331.67 584.94,-331.99"/>
<polygon fill="#000000" fill-opacity="0.200000" stroke="#000000" stroke-width="2" stroke-opacity="0.200000" points="583.46,-333.49 589.37,-335.82 586.2,-330.31 583.46,-333.49"/>
</g>
<!-- src/utilities/boardsApi.ts&#45;&gt;src/utilities/customFetch.ts -->
<g id="edge36" class="edge">
<title>src/utilities/boardsApi.ts&#45;&gt;src/utilities/customFetch.ts</title>
<path fill="none" stroke="#000000" stroke-width="2" stroke-opacity="0.200000" d="M543.24,-100.72C554.2,-102.93 566.13,-106.43 576.12,-112 596.1,-123.13 613.76,-142.82 624.85,-157.03"/>
<polygon fill="#000000" fill-opacity="0.200000" stroke="#000000" stroke-width="2" stroke-opacity="0.200000" points="622.91,-157.94 628.2,-161.47 626.26,-155.41 622.91,-157.94"/>
</g>
<!-- src/utilities/gamesApi.ts&#45;&gt;src/core/baseUrl.ts -->
<g id="edge38" class="edge">
<title>src/utilities/gamesApi.ts&#45;&gt;src/core/baseUrl.ts</title>
<path fill="none" stroke="#000000" stroke-width="2" stroke-opacity="0.200000" d="M542.28,-158.64C554.62,-160.26 567.73,-164.42 576.12,-174 588.93,-188.6 572.75,-245.27 584.12,-261 588.47,-267.01 594.72,-271.46 601.42,-274.76"/>
<polygon fill="#000000" fill-opacity="0.200000" stroke="#000000" stroke-width="2" stroke-opacity="0.200000" points="600.26,-276.55 606.6,-276.95 601.89,-272.68 600.26,-276.55"/>
</g>
<!-- src/utilities/gamesApi.ts&#45;&gt;src/core/generated&#45;client.ts -->
<g id="edge39" class="edge">
<title>src/utilities/gamesApi.ts&#45;&gt;src/core/generated&#45;client.ts</title>
<path fill="none" stroke="#000000" stroke-width="2" stroke-opacity="0.200000" d="M542.48,-158.47C554.85,-160.06 567.92,-164.25 576.12,-174 598.62,-200.73 562.36,-303.68 584.12,-331 584.39,-331.34 584.67,-331.66 584.95,-331.99"/>
<polygon fill="#000000" fill-opacity="0.200000" stroke="#000000" stroke-width="2" stroke-opacity="0.200000" points="583.48,-333.49 589.41,-335.79 586.21,-330.3 583.48,-333.49"/>
</g>
<!-- src/utilities/gamesApi.ts&#45;&gt;src/utilities/customFetch.ts -->
<g id="edge40" class="edge">
<title>src/utilities/gamesApi.ts&#45;&gt;src/utilities/customFetch.ts</title>
<path fill="none" stroke="#000000" stroke-width="2" stroke-opacity="0.200000" d="M542.28,-162.82C556.68,-164.52 573.92,-166.56 589.71,-168.42"/>
<polygon fill="#000000" fill-opacity="0.200000" stroke="#000000" stroke-width="2" stroke-opacity="0.200000" points="589.1,-170.46 595.31,-169.08 589.59,-166.29 589.1,-170.46"/>
</g>
<!-- src/utilities/playersApi.ts&#45;&gt;src/core/baseUrl.ts -->
<g id="edge41" class="edge">
<title>src/utilities/playersApi.ts&#45;&gt;src/core/baseUrl.ts</title>
<path fill="none" stroke="#000000" stroke-width="2" stroke-opacity="0.200000" d="M543.43,-127.68C555.48,-129.38 568.07,-133.59 576.12,-143 593.22,-162.97 568.98,-239.52 584.12,-261 588.4,-267.06 594.62,-271.53 601.31,-274.84"/>
<polygon fill="#000000" fill-opacity="0.200000" stroke="#000000" stroke-width="2" stroke-opacity="0.200000" points="600.15,-276.63 606.49,-277.03 601.78,-272.76 600.15,-276.63"/>
</g>
<!-- src/utilities/playersApi.ts&#45;&gt;src/core/generated&#45;client.ts -->
<g id="edge42" class="edge">
<title>src/utilities/playersApi.ts&#45;&gt;src/core/generated&#45;client.ts</title>
<path fill="none" stroke="#000000" stroke-width="2" stroke-opacity="0.200000" d="M543.55,-127.58C555.62,-129.26 568.19,-133.49 576.12,-143 589.52,-159.05 571.17,-314.59 584.12,-331 584.39,-331.34 584.66,-331.67 584.94,-331.99"/>
<polygon fill="#000000" fill-opacity="0.200000" stroke="#000000" stroke-width="2" stroke-opacity="0.200000" points="583.47,-333.49 589.39,-335.81 586.21,-330.3 583.47,-333.49"/>
</g>
<!-- src/utilities/playersApi.ts&#45;&gt;src/utilities/customFetch.ts -->
<g id="edge43" class="edge">
<title>src/utilities/playersApi.ts&#45;&gt;src/utilities/customFetch.ts</title>
<path fill="none" stroke="#000000" stroke-width="2" stroke-opacity="0.200000" d="M543.36,-133.89C554,-136.21 565.7,-139.23 576.12,-143 588.48,-147.47 601.54,-153.87 612.38,-159.7"/>
<polygon fill="#000000" fill-opacity="0.200000" stroke="#000000" stroke-width="2" stroke-opacity="0.200000" points="611.27,-161.49 617.54,-162.54 613.3,-157.81 611.27,-161.49"/>
</g>
<!-- src/utilities/transactionsApi.ts&#45;&gt;src/core/baseUrl.ts -->
<g id="edge44" class="edge">
<title>src/utilities/transactionsApi.ts&#45;&gt;src/core/baseUrl.ts</title>
<path fill="none" stroke="#000000" stroke-width="2" stroke-opacity="0.200000" d="M527.36,-230.96C542.27,-239.32 564.37,-251.4 584.12,-261 590.73,-264.21 597.88,-267.46 604.74,-270.48"/>
<polygon fill="#000000" fill-opacity="0.200000" stroke="#000000" stroke-width="2" stroke-opacity="0.200000" points="603.47,-272.22 609.81,-272.68 605.15,-268.37 603.47,-272.22"/>
</g>
<!-- src/utilities/transactionsApi.ts&#45;&gt;src/core/generated&#45;client.ts -->
<g id="edge45" class="edge">
<title>src/utilities/transactionsApi.ts&#45;&gt;src/core/generated&#45;client.ts</title>
<path fill="none" stroke="#000000" stroke-width="2" stroke-opacity="0.200000" d="M519.87,-230.82C534.26,-245.5 560.78,-274.58 576.12,-304 581.91,-315.1 575.22,-322.2 584.12,-331 584.41,-331.29 584.71,-331.56 585,-331.84"/>
<polygon fill="#000000" fill-opacity="0.200000" stroke="#000000" stroke-width="2" stroke-opacity="0.200000" points="583.35,-333.23 589.44,-335.08 585.83,-329.84 583.35,-333.23"/>
</g>
<!-- src/utilities/transactionsApi.ts&#45;&gt;src/utilities/customFetch.ts -->
<g id="edge46" class="edge">
<title>src/utilities/transactionsApi.ts&#45;&gt;src/utilities/customFetch.ts</title>
<path fill="none" stroke="#000000" stroke-width="2" stroke-opacity="0.200000" d="M553.82,-212.75C561.36,-210.85 569.04,-208.61 576.12,-206 588.84,-201.31 602.24,-194.49 613.22,-188.35"/>
<polygon fill="#000000" fill-opacity="0.200000" stroke="#000000" stroke-width="2" stroke-opacity="0.200000" points="613.96,-190.35 618.12,-185.55 611.87,-186.71 613.96,-190.35"/>
</g>
<!-- src/pages/auth/Login.tsx -->
<g id="node21" class="node">
<title>src/pages/auth/Login.tsx</title>
<g id="a_node21"><a xlink:href="src/pages/auth/Login.tsx" xlink:title="Login.tsx">
<path fill="#bbfeff" stroke="black" d="M393.71,-492.62C393.71,-492.62 352.54,-492.62 352.54,-492.62 349.33,-492.62 346.12,-489.42 346.12,-486.21 346.12,-486.21 346.12,-479.79 346.12,-479.79 346.12,-476.58 349.33,-473.38 352.54,-473.38 352.54,-473.38 393.71,-473.38 393.71,-473.38 396.92,-473.38 400.12,-476.58 400.12,-479.79 400.12,-479.79 400.12,-486.21 400.12,-486.21 400.12,-489.42 396.92,-492.62 393.71,-492.62"/>
<text text-anchor="start" x="354.75" y="-480.07" font-family="Helvetica,sans-Serif" font-size="9.00">Login.tsx</text>
</a>
</g>
</g>
<!-- src/pages/auth/Login.tsx&#45;&gt;src/atoms/auth.ts -->
<g id="edge23" class="edge">
<title>src/pages/auth/Login.tsx&#45;&gt;src/atoms/auth.ts</title>
<path fill="none" stroke="#000000" stroke-width="2" stroke-opacity="0.200000" d="M400.27,-472.9C417.17,-464.84 437.88,-451.78 448.12,-433 467.13,-398.17 438.66,-111.63 456.12,-76 461.56,-64.91 471.47,-55.76 481.17,-48.87"/>
<polygon fill="#000000" fill-opacity="0.200000" stroke="#000000" stroke-width="2" stroke-opacity="0.200000" points="482.1,-50.77 485.94,-45.71 479.78,-47.27 482.1,-50.77"/>
</g>
<!-- src/pages/auth/LoginPage.tsx&#45;&gt;src/pages/auth/Login.tsx -->
<g id="edge24" class="edge">
<title>src/pages/auth/LoginPage.tsx&#45;&gt;src/pages/auth/Login.tsx</title>
<path fill="none" stroke="#000000" stroke-width="2" stroke-opacity="0.200000" d="M273.77,-483C293.3,-483 317.44,-483 336.92,-483"/>
<polygon fill="#000000" fill-opacity="0.200000" stroke="#000000" stroke-width="2" stroke-opacity="0.200000" points="336.76,-485.1 342.76,-483 336.76,-480.9 336.76,-485.1"/>
</g>
<!-- src/pages/auth/registr.tsx -->
<g id="node23" class="node">
<title>src/pages/auth/registr.tsx</title>
<g id="a_node23"><a xlink:href="src/pages/auth/registr.tsx" xlink:title="no&#45;orphans">
<path fill="#ccffcc" stroke="orange" d="M259.46,-523.62C259.46,-523.62 215.04,-523.62 215.04,-523.62 211.83,-523.62 208.62,-520.42 208.62,-517.21 208.62,-517.21 208.62,-510.79 208.62,-510.79 208.62,-507.58 211.83,-504.38 215.04,-504.38 215.04,-504.38 259.46,-504.38 259.46,-504.38 262.67,-504.38 265.88,-507.58 265.88,-510.79 265.88,-510.79 265.88,-517.21 265.88,-517.21 265.88,-520.42 262.67,-523.62 259.46,-523.62"/>
<text text-anchor="start" x="216.62" y="-511.07" font-family="Helvetica,sans-Serif" font-size="9.00" fill="orange">registr.tsx</text>
</a>
</g>
</g>
<!-- src/pages/home/components/HeroSection.tsx -->
<g id="node25" class="node">
<title>src/pages/home/components/HeroSection.tsx</title>
<g id="a_node25"><a xlink:href="src/pages/home/components/HeroSection.tsx" xlink:title="HeroSection.tsx">
<path fill="#bbfeff" stroke="black" d="M406.96,-594.62C406.96,-594.62 339.29,-594.62 339.29,-594.62 336.08,-594.62 332.88,-591.42 332.88,-588.21 332.88,-588.21 332.88,-581.79 332.88,-581.79 332.88,-578.58 336.08,-575.38 339.29,-575.38 339.29,-575.38 406.96,-575.38 406.96,-575.38 410.17,-575.38 413.38,-578.58 413.38,-581.79 413.38,-581.79 413.38,-588.21 413.38,-588.21 413.38,-591.42 410.17,-594.62 406.96,-594.62"/>
<text text-anchor="start" x="340.88" y="-582.08" font-family="Helvetica,sans-Serif" font-size="9.00">HeroSection.tsx</text>
</a>
</g>
</g>
<!-- src/pages/home/HomePage.tsx&#45;&gt;src/pages/home/components/HeroSection.tsx -->
<g id="edge25" class="edge">
<title>src/pages/home/HomePage.tsx&#45;&gt;src/pages/home/components/HeroSection.tsx</title>
<path fill="none" stroke="#000000" stroke-width="2" stroke-opacity="0.200000" d="M274.83,-582.09C289.99,-582.55 307.77,-583.08 323.97,-583.56"/>
<polygon fill="#000000" fill-opacity="0.200000" stroke="#000000" stroke-width="2" stroke-opacity="0.200000" points="323.69,-585.65 329.75,-583.73 323.81,-581.46 323.69,-585.65"/>
</g>
<!-- src/pages/home/components/BoardPreview.tsx -->
<g id="node26" class="node">
<title>src/pages/home/components/BoardPreview.tsx</title>
<g id="a_node26"><a xlink:href="src/pages/home/components/BoardPreview.tsx" xlink:title="BoardPreview.tsx">
<path fill="#bbfeff" stroke="black" d="M545.71,-594.62C545.71,-594.62 472.04,-594.62 472.04,-594.62 468.83,-594.62 465.62,-591.42 465.62,-588.21 465.62,-588.21 465.62,-581.79 465.62,-581.79 465.62,-578.58 468.83,-575.38 472.04,-575.38 472.04,-575.38 545.71,-575.38 545.71,-575.38 548.92,-575.38 552.12,-578.58 552.12,-581.79 552.12,-581.79 552.12,-588.21 552.12,-588.21 552.12,-591.42 548.92,-594.62 545.71,-594.62"/>
<text text-anchor="start" x="473.62" y="-582.08" font-family="Helvetica,sans-Serif" font-size="9.00">BoardPreview.tsx</text>
</a>
</g>
</g>
<!-- src/pages/home/components/HeroSection.tsx&#45;&gt;src/pages/home/components/BoardPreview.tsx -->
<g id="edge26" class="edge">
<title>src/pages/home/components/HeroSection.tsx&#45;&gt;src/pages/home/components/BoardPreview.tsx</title>
<path fill="none" stroke="#000000" stroke-width="2" stroke-opacity="0.200000" d="M413.53,-585C427.06,-585 442.4,-585 456.73,-585"/>
<polygon fill="#000000" fill-opacity="0.200000" stroke="#000000" stroke-width="2" stroke-opacity="0.200000" points="456.46,-587.1 462.46,-585 456.46,-582.9 456.46,-587.1"/>
</g>
<!-- src/utilities/customFetch.ts&#45;&gt;src/core/problemdetails.ts -->
<g id="edge37" class="edge">
<title>src/utilities/customFetch.ts&#45;&gt;src/core/problemdetails.ts</title>
<path fill="none" stroke="#000000" stroke-opacity="0.200000" d="M627.48,-183.84C607.48,-203.8 567.05,-250.83 580.12,-294 581.57,-298.77 584.4,-302.49 588.08,-305.4"/>
<polygon fill="none" stroke="#000000" stroke-opacity="0.200000" points="586.96,-307.18 593.17,-308.54 589.16,-303.6 586.96,-307.18"/>
</g>
<!-- src/vite&#45;env.d.ts -->
<g id="node28" class="node">
<title>src/vite&#45;env.d.ts</title>
<g id="a_node28"><a xlink:href="src/vite-env.d.ts" xlink:title="vite&#45;env.d.ts">
<path fill="#ccffcc" stroke="black" d="M75.08,-605.62C75.08,-605.62 22.42,-605.62 22.42,-605.62 19.21,-605.62 16,-602.42 16,-599.21 16,-599.21 16,-592.79 16,-592.79 16,-589.58 19.21,-586.38 22.42,-586.38 22.42,-586.38 75.08,-586.38 75.08,-586.38 78.29,-586.38 81.5,-589.58 81.5,-592.79 81.5,-592.79 81.5,-599.21 81.5,-599.21 81.5,-602.42 78.29,-605.62 75.08,-605.62"/>
<text text-anchor="start" x="24" y="-593.08" font-family="Helvetica,sans-Serif" font-size="9.00">vite&#45;env.d.ts</text>
</a>
</g>
</g>
</g>
</svg>
